%TF.GenerationSoftware,KiCad,Pcbnew,7.0.9*%
%TF.CreationDate,2024-02-07T01:21:47+02:00*%
%TF.ProjectId,W65C02Computer,57363543-3032-4436-9f6d-70757465722e,rev?*%
%TF.SameCoordinates,Original*%
%TF.FileFunction,Copper,L2,Bot*%
%TF.FilePolarity,Positive*%
%FSLAX46Y46*%
G04 Gerber Fmt 4.6, Leading zero omitted, Abs format (unit mm)*
G04 Created by KiCad (PCBNEW 7.0.9) date 2024-02-07 01:21:47*
%MOMM*%
%LPD*%
G01*
G04 APERTURE LIST*
%TA.AperFunction,ComponentPad*%
%ADD10R,2.400000X1.600000*%
%TD*%
%TA.AperFunction,ComponentPad*%
%ADD11O,2.400000X1.600000*%
%TD*%
%TA.AperFunction,ComponentPad*%
%ADD12C,2.300000*%
%TD*%
%TA.AperFunction,ComponentPad*%
%ADD13O,2.200000X3.500000*%
%TD*%
%TA.AperFunction,ComponentPad*%
%ADD14R,1.500000X2.500000*%
%TD*%
%TA.AperFunction,ComponentPad*%
%ADD15O,1.500000X2.500000*%
%TD*%
%TA.AperFunction,ComponentPad*%
%ADD16R,1.700000X1.700000*%
%TD*%
%TA.AperFunction,ComponentPad*%
%ADD17O,1.700000X1.700000*%
%TD*%
%TA.AperFunction,ComponentPad*%
%ADD18R,1.600000X1.600000*%
%TD*%
%TA.AperFunction,ComponentPad*%
%ADD19O,1.600000X1.600000*%
%TD*%
%TA.AperFunction,ComponentPad*%
%ADD20R,2.000000X1.440000*%
%TD*%
%TA.AperFunction,ComponentPad*%
%ADD21O,2.000000X1.440000*%
%TD*%
%TA.AperFunction,ComponentPad*%
%ADD22R,1.560000X1.560000*%
%TD*%
%TA.AperFunction,ComponentPad*%
%ADD23C,1.560000*%
%TD*%
%TA.AperFunction,ComponentPad*%
%ADD24C,4.000000*%
%TD*%
%TA.AperFunction,ComponentPad*%
%ADD25C,1.600000*%
%TD*%
%TA.AperFunction,ComponentPad*%
%ADD26C,2.000000*%
%TD*%
%TA.AperFunction,ComponentPad*%
%ADD27R,1.600000X2.400000*%
%TD*%
%TA.AperFunction,ComponentPad*%
%ADD28O,1.600000X2.400000*%
%TD*%
%TA.AperFunction,ViaPad*%
%ADD29C,0.500000*%
%TD*%
%TA.AperFunction,ViaPad*%
%ADD30C,0.800000*%
%TD*%
%TA.AperFunction,ViaPad*%
%ADD31C,0.600000*%
%TD*%
%TA.AperFunction,Conductor*%
%ADD32C,0.500000*%
%TD*%
%TA.AperFunction,Conductor*%
%ADD33C,0.400000*%
%TD*%
G04 APERTURE END LIST*
D10*
%TO.P,U6,1,C1+*%
%TO.N,Net-(U6-C1+)*%
X231090000Y-113000000D03*
D11*
%TO.P,U6,2,VS+*%
%TO.N,Net-(U6-VS+)*%
X231090000Y-115540000D03*
%TO.P,U6,3,C1-*%
%TO.N,Net-(U6-C1-)*%
X231090000Y-118080000D03*
%TO.P,U6,4,C2+*%
%TO.N,Net-(U6-C2+)*%
X231090000Y-120620000D03*
%TO.P,U6,5,C2-*%
%TO.N,Net-(U6-C2-)*%
X231090000Y-123160000D03*
%TO.P,U6,6,VS-*%
%TO.N,Net-(U6-VS-)*%
X231090000Y-125700000D03*
%TO.P,U6,7,T2OUT*%
%TO.N,unconnected-(U6-T2OUT-Pad7)*%
X231090000Y-128240000D03*
%TO.P,U6,8,R2IN*%
%TO.N,unconnected-(U6-R2IN-Pad8)*%
X231090000Y-130780000D03*
%TO.P,U6,9,R2OUT*%
%TO.N,unconnected-(U6-R2OUT-Pad9)*%
X238710000Y-130780000D03*
%TO.P,U6,10,T2IN*%
%TO.N,unconnected-(U6-T2IN-Pad10)*%
X238710000Y-128240000D03*
%TO.P,U6,11,T1IN*%
%TO.N,Net-(U6-T1IN)*%
X238710000Y-125700000D03*
%TO.P,U6,12,R1OUT*%
%TO.N,Net-(U6-R1OUT)*%
X238710000Y-123160000D03*
%TO.P,U6,13,R1IN*%
%TO.N,Net-(U6-R1IN)*%
X238710000Y-120620000D03*
%TO.P,U6,14,T1OUT*%
%TO.N,Net-(U6-T1OUT)*%
X238710000Y-118080000D03*
%TO.P,U6,15,GND*%
%TO.N,GND*%
X238710000Y-115540000D03*
%TO.P,U6,16,VCC*%
%TO.N,+5V*%
X238710000Y-113000000D03*
%TD*%
D12*
%TO.P,Y1,1,1*%
%TO.N,Net-(U7-XTLI)*%
X206310000Y-109180000D03*
%TO.P,Y1,2,2*%
%TO.N,Net-(U7-XTLO)*%
X206310000Y-114080000D03*
%TD*%
D13*
%TO.P,SW2,*%
%TO.N,*%
X179990000Y-33530000D03*
X171790000Y-33530000D03*
D14*
%TO.P,SW2,1,A*%
%TO.N,N/C*%
X177890000Y-33530000D03*
D15*
%TO.P,SW2,2,B*%
X175890000Y-33530000D03*
%TO.P,SW2,3,C*%
X173890000Y-33530000D03*
%TD*%
D16*
%TO.P,REF\u002A\u002A,1*%
%TO.N,RESET*%
X153800000Y-65100000D03*
D17*
%TO.P,REF\u002A\u002A,2*%
%TO.N,R{slash}~{W}*%
X156340000Y-65100000D03*
%TO.P,REF\u002A\u002A,3*%
%TO.N,Net-(U1-RDY)*%
X153800000Y-67640000D03*
%TO.P,REF\u002A\u002A,4*%
%TO.N,unconnected-(U1-PHI1out-Pad3)*%
X156340000Y-67640000D03*
%TO.P,REF\u002A\u002A,5*%
%TO.N,unconnected-(U1-PHI2out-Pad39)*%
X153800000Y-70180000D03*
%TO.P,REF\u002A\u002A,6*%
%TO.N,IRQ*%
X156340000Y-70180000D03*
%TO.P,REF\u002A\u002A,7*%
%TO.N,unconnected-(U1-~{SO}-Pad38)*%
X153800000Y-72720000D03*
%TO.P,REF\u002A\u002A,8*%
%TO.N,unconnected-(U1-~{ML}-Pad5)*%
X156340000Y-72720000D03*
%TO.P,REF\u002A\u002A,9*%
%TO.N,CLK*%
X153800000Y-75260000D03*
%TO.P,REF\u002A\u002A,10*%
%TO.N,+5V*%
X156340000Y-75260000D03*
%TO.P,REF\u002A\u002A,11*%
X153800000Y-77800000D03*
%TO.P,REF\u002A\u002A,12*%
%TO.N,unconnected-(U1-SYNC-Pad7)*%
X156340000Y-77800000D03*
%TD*%
D18*
%TO.P,U7,1,VSS*%
%TO.N,GND*%
X210865000Y-97755000D03*
D19*
%TO.P,U7,2,CS0*%
%TO.N,/A12*%
X210865000Y-100295000D03*
%TO.P,U7,3,~{CS1}*%
%TO.N,PHER*%
X210865000Y-102835000D03*
%TO.P,U7,4,~{RESET}*%
%TO.N,RESET*%
X210865000Y-105375000D03*
%TO.P,U7,5,RxC*%
%TO.N,unconnected-(U7-RxC-Pad5)*%
X210865000Y-107915000D03*
%TO.P,U7,6,XTLI*%
%TO.N,Net-(U7-XTLI)*%
X210865000Y-110455000D03*
%TO.P,U7,7,XTLO*%
%TO.N,Net-(U7-XTLO)*%
X210865000Y-112995000D03*
%TO.P,U7,8,~{RTS}*%
%TO.N,unconnected-(U7-~{RTS}-Pad8)*%
X210865000Y-115535000D03*
%TO.P,U7,9,~{CTS}*%
%TO.N,unconnected-(U7-~{CTS}-Pad9)*%
X210865000Y-118075000D03*
%TO.P,U7,10,TxD*%
%TO.N,Net-(U6-T1IN)*%
X210865000Y-120615000D03*
%TO.P,U7,11,~{DTR}*%
%TO.N,unconnected-(U7-~{DTR}-Pad11)*%
X210865000Y-123155000D03*
%TO.P,U7,12,RxD*%
%TO.N,Net-(U6-R1OUT)*%
X210865000Y-125695000D03*
%TO.P,U7,13,RS0*%
%TO.N,/A0*%
X210865000Y-128235000D03*
%TO.P,U7,14,RS1*%
%TO.N,/A1*%
X210865000Y-130775000D03*
%TO.P,U7,15,VCC*%
%TO.N,+5V*%
X226105000Y-130775000D03*
%TO.P,U7,16,~{DCD}*%
%TO.N,unconnected-(U7-~{DCD}-Pad16)*%
X226105000Y-128235000D03*
%TO.P,U7,17,~{DSR}*%
%TO.N,unconnected-(U7-~{DSR}-Pad17)*%
X226105000Y-125695000D03*
%TO.P,U7,18,D0*%
%TO.N,/D0*%
X226105000Y-123155000D03*
%TO.P,U7,19,D1*%
%TO.N,/D1*%
X226105000Y-120615000D03*
%TO.P,U7,20,D2*%
%TO.N,/D2*%
X226105000Y-118075000D03*
%TO.P,U7,21,D3*%
%TO.N,/D3*%
X226105000Y-115535000D03*
%TO.P,U7,22,D4*%
%TO.N,/D4*%
X226105000Y-112995000D03*
%TO.P,U7,23,D5*%
%TO.N,/D5*%
X226105000Y-110455000D03*
%TO.P,U7,24,D6*%
%TO.N,/D6*%
X226105000Y-107915000D03*
%TO.P,U7,25,D7*%
%TO.N,/D7*%
X226105000Y-105375000D03*
%TO.P,U7,26,~{IRQ}*%
%TO.N,Net-(D2-K)*%
X226105000Y-102835000D03*
%TO.P,U7,27,PHI2*%
%TO.N,CLK*%
X226105000Y-100295000D03*
%TO.P,U7,28,R/~{W}*%
%TO.N,R{slash}~{W}*%
X226105000Y-97755000D03*
%TD*%
D20*
%TO.P,U2,1,A14*%
%TO.N,/A14*%
X207680000Y-52850000D03*
D21*
%TO.P,U2,2,A12*%
%TO.N,/A12*%
X207680000Y-55390000D03*
%TO.P,U2,3,A7*%
%TO.N,/A7*%
X207680000Y-57930000D03*
%TO.P,U2,4,A6*%
%TO.N,/A6*%
X207680000Y-60470000D03*
%TO.P,U2,5,A5*%
%TO.N,/A5*%
X207680000Y-63010000D03*
%TO.P,U2,6,A4*%
%TO.N,/A4*%
X207680000Y-65550000D03*
%TO.P,U2,7,A3*%
%TO.N,/A3*%
X207680000Y-68090000D03*
%TO.P,U2,8,A2*%
%TO.N,/A2*%
X207680000Y-70630000D03*
%TO.P,U2,9,A1*%
%TO.N,/A1*%
X207680000Y-73170000D03*
%TO.P,U2,10,A0*%
%TO.N,/A0*%
X207680000Y-75710000D03*
%TO.P,U2,11,D0*%
%TO.N,/D0*%
X207680000Y-78250000D03*
%TO.P,U2,12,D1*%
%TO.N,/D1*%
X207680000Y-80790000D03*
%TO.P,U2,13,D2*%
%TO.N,/D2*%
X207680000Y-83330000D03*
%TO.P,U2,14,GND*%
%TO.N,GND*%
X207680000Y-85870000D03*
%TO.P,U2,15,D3*%
%TO.N,/D3*%
X222920000Y-85870000D03*
%TO.P,U2,16,D4*%
%TO.N,/D4*%
X222920000Y-83330000D03*
%TO.P,U2,17,D5*%
%TO.N,/D5*%
X222920000Y-80790000D03*
%TO.P,U2,18,D6*%
%TO.N,/D6*%
X222920000Y-78250000D03*
%TO.P,U2,19,D7*%
%TO.N,/D7*%
X222920000Y-75710000D03*
%TO.P,U2,20,~{CS}*%
%TO.N,Net-(U2-~{CS})*%
X222920000Y-73170000D03*
%TO.P,U2,21,A10*%
%TO.N,/A10*%
X222920000Y-70630000D03*
%TO.P,U2,22,~{OE}*%
%TO.N,GND*%
X222920000Y-68090000D03*
%TO.P,U2,23,A11*%
%TO.N,/A11*%
X222920000Y-65550000D03*
%TO.P,U2,24,A9*%
%TO.N,/A9*%
X222920000Y-63010000D03*
%TO.P,U2,25,A8*%
%TO.N,/A8*%
X222920000Y-60470000D03*
%TO.P,U2,26,A13*%
%TO.N,/A13*%
X222920000Y-57930000D03*
%TO.P,U2,27,~{WE}*%
%TO.N,+5V*%
X222920000Y-55390000D03*
%TO.P,U2,28,VCC*%
X222920000Y-52850000D03*
%TD*%
D16*
%TO.P,REF\u002A\u002A,1*%
%TO.N,/D7*%
X156340000Y-83770000D03*
D17*
%TO.P,REF\u002A\u002A,2*%
%TO.N,/D6*%
X156340000Y-86310000D03*
%TO.P,REF\u002A\u002A,3*%
%TO.N,/D5*%
X156340000Y-88850000D03*
%TO.P,REF\u002A\u002A,4*%
%TO.N,/D4*%
X156340000Y-91390000D03*
%TO.P,REF\u002A\u002A,5*%
%TO.N,/D3*%
X156340000Y-93930000D03*
%TO.P,REF\u002A\u002A,6*%
%TO.N,/D2*%
X156340000Y-96470000D03*
%TO.P,REF\u002A\u002A,7*%
%TO.N,/D1*%
X156340000Y-99010000D03*
%TO.P,REF\u002A\u002A,8*%
%TO.N,/D0*%
X156340000Y-101550000D03*
%TD*%
D18*
%TO.P,U1,1,~{VP}*%
%TO.N,unconnected-(U1-~{VP}-Pad1)*%
X170830000Y-43150000D03*
D19*
%TO.P,U1,2,RDY*%
%TO.N,Net-(U1-RDY)*%
X170830000Y-45690000D03*
%TO.P,U1,3,PHI1out*%
%TO.N,unconnected-(U1-PHI1out-Pad3)*%
X170830000Y-48230000D03*
%TO.P,U1,4,~{IRQ}*%
%TO.N,IRQ*%
X170830000Y-50770000D03*
%TO.P,U1,5,~{ML}*%
%TO.N,unconnected-(U1-~{ML}-Pad5)*%
X170830000Y-53310000D03*
%TO.P,U1,6,~{NMI}*%
%TO.N,+5V*%
X170830000Y-55850000D03*
%TO.P,U1,7,SYNC*%
%TO.N,unconnected-(U1-SYNC-Pad7)*%
X170830000Y-58390000D03*
%TO.P,U1,8,VCC*%
%TO.N,+5V*%
X170830000Y-60930000D03*
%TO.P,U1,9,A0*%
%TO.N,/A0*%
X170830000Y-63470000D03*
%TO.P,U1,10,A1*%
%TO.N,/A1*%
X170830000Y-66010000D03*
%TO.P,U1,11,A2*%
%TO.N,/A2*%
X170830000Y-68550000D03*
%TO.P,U1,12,A3*%
%TO.N,/A3*%
X170830000Y-71090000D03*
%TO.P,U1,13,A4*%
%TO.N,/A4*%
X170830000Y-73630000D03*
%TO.P,U1,14,A5*%
%TO.N,/A5*%
X170830000Y-76170000D03*
%TO.P,U1,15,A6*%
%TO.N,/A6*%
X170830000Y-78710000D03*
%TO.P,U1,16,A7*%
%TO.N,/A7*%
X170830000Y-81250000D03*
%TO.P,U1,17,A8*%
%TO.N,/A8*%
X170830000Y-83790000D03*
%TO.P,U1,18,A9*%
%TO.N,/A9*%
X170830000Y-86330000D03*
%TO.P,U1,19,A10*%
%TO.N,/A10*%
X170830000Y-88870000D03*
%TO.P,U1,20,A11*%
%TO.N,/A11*%
X170830000Y-91410000D03*
%TO.P,U1,21,GND*%
%TO.N,GND*%
X186070000Y-91410000D03*
%TO.P,U1,22,A12*%
%TO.N,/A12*%
X186070000Y-88870000D03*
%TO.P,U1,23,A13*%
%TO.N,/A13*%
X186070000Y-86330000D03*
%TO.P,U1,24,A14*%
%TO.N,/A14*%
X186070000Y-83790000D03*
%TO.P,U1,25,A15*%
%TO.N,/A15*%
X186070000Y-81250000D03*
%TO.P,U1,26,D7*%
%TO.N,/D7*%
X186070000Y-78710000D03*
%TO.P,U1,27,D6*%
%TO.N,/D6*%
X186070000Y-76170000D03*
%TO.P,U1,28,D5*%
%TO.N,/D5*%
X186070000Y-73630000D03*
%TO.P,U1,29,D4*%
%TO.N,/D4*%
X186070000Y-71090000D03*
%TO.P,U1,30,D3*%
%TO.N,/D3*%
X186070000Y-68550000D03*
%TO.P,U1,31,D2*%
%TO.N,/D2*%
X186070000Y-66010000D03*
%TO.P,U1,32,D1*%
%TO.N,/D1*%
X186070000Y-63470000D03*
%TO.P,U1,33,D0*%
%TO.N,/D0*%
X186070000Y-60930000D03*
%TO.P,U1,34,R/~{W}*%
%TO.N,R{slash}~{W}*%
X186070000Y-58390000D03*
%TO.P,U1,35,NC*%
%TO.N,unconnected-(U1-NC-Pad35)*%
X186070000Y-55850000D03*
%TO.P,U1,36,BE*%
%TO.N,+5V*%
X186070000Y-53310000D03*
%TO.P,U1,37,PHI2*%
%TO.N,CLK*%
X186070000Y-50770000D03*
%TO.P,U1,38,~{SO}*%
%TO.N,unconnected-(U1-~{SO}-Pad38)*%
X186070000Y-48230000D03*
%TO.P,U1,39,PHI2out*%
%TO.N,unconnected-(U1-PHI2out-Pad39)*%
X186070000Y-45690000D03*
%TO.P,U1,40,~{RESET}*%
%TO.N,RESET*%
X186070000Y-43150000D03*
%TD*%
D22*
%TO.P,RV1,1,1*%
%TO.N,unconnected-(RV1-Pad1)*%
X252330000Y-91235000D03*
D23*
%TO.P,RV1,2,2*%
%TO.N,Net-(DS1-VO)*%
X249830000Y-86235000D03*
%TO.P,RV1,3,3*%
%TO.N,GND*%
X247330000Y-91235000D03*
%TD*%
D16*
%TO.P,DS1,1,VSS*%
%TO.N,GND*%
X250870000Y-78860000D03*
D17*
%TO.P,DS1,2,VDD*%
%TO.N,+5V*%
X250870000Y-76320000D03*
%TO.P,DS1,3,VO*%
%TO.N,Net-(DS1-VO)*%
X250870000Y-73780000D03*
%TO.P,DS1,4,RS*%
%TO.N,Net-(DS1-RS)*%
X250870000Y-71240000D03*
%TO.P,DS1,5,R/W*%
%TO.N,Net-(DS1-R{slash}W)*%
X250870000Y-68700000D03*
%TO.P,DS1,6,E*%
%TO.N,Net-(DS1-E)*%
X250870000Y-66160000D03*
%TO.P,DS1,7,D0*%
%TO.N,unconnected-(DS1-D0-Pad7)*%
X250870000Y-63620000D03*
%TO.P,DS1,8,D1*%
%TO.N,unconnected-(DS1-D1-Pad8)*%
X250870000Y-61080000D03*
%TO.P,DS1,9,D2*%
%TO.N,unconnected-(DS1-D2-Pad9)*%
X250870000Y-58540000D03*
%TO.P,DS1,10,D3*%
%TO.N,unconnected-(DS1-D3-Pad10)*%
X250870000Y-56000000D03*
%TO.P,DS1,11,D4*%
%TO.N,Net-(DS1-D4)*%
X250870000Y-53460000D03*
%TO.P,DS1,12,D5*%
%TO.N,Net-(DS1-D5)*%
X250870000Y-50920000D03*
%TO.P,DS1,13,D6*%
%TO.N,Net-(DS1-D6)*%
X250870000Y-48380000D03*
%TO.P,DS1,14,D7*%
%TO.N,Net-(DS1-D7)*%
X250870000Y-45840000D03*
%TO.P,DS1,15,LED(+)*%
%TO.N,+5V*%
X250870000Y-43300000D03*
%TO.P,DS1,16,LED(-)*%
%TO.N,Net-(DS1-LED(-))*%
X250870000Y-40760000D03*
%TD*%
D16*
%TO.P,REF\u002A\u002A,1,Pin_1*%
%TO.N,/A15*%
X165090000Y-101580000D03*
D17*
%TO.P,REF\u002A\u002A,2,Pin_2*%
%TO.N,/A14*%
X165090000Y-99040000D03*
%TO.P,REF\u002A\u002A,3,Pin_3*%
%TO.N,/A13*%
X165090000Y-96500000D03*
%TO.P,REF\u002A\u002A,4,Pin_4*%
%TO.N,/A12*%
X165090000Y-93960000D03*
%TO.P,REF\u002A\u002A,5,Pin_5*%
%TO.N,/A11*%
X165090000Y-91420000D03*
%TO.P,REF\u002A\u002A,6,Pin_6*%
%TO.N,/A10*%
X165090000Y-88880000D03*
%TO.P,REF\u002A\u002A,7,Pin_7*%
%TO.N,/A9*%
X165090000Y-86340000D03*
%TO.P,REF\u002A\u002A,8,Pin_8*%
%TO.N,/A8*%
X165090000Y-83800000D03*
%TO.P,REF\u002A\u002A,9,Pin_9*%
%TO.N,/A7*%
X165090000Y-81260000D03*
%TO.P,REF\u002A\u002A,10,Pin_10*%
%TO.N,/A6*%
X165090000Y-78720000D03*
%TO.P,REF\u002A\u002A,11,Pin_11*%
%TO.N,/A5*%
X165090000Y-76180000D03*
%TO.P,REF\u002A\u002A,12,Pin_12*%
%TO.N,/A4*%
X165090000Y-73640000D03*
%TO.P,REF\u002A\u002A,13,Pin_13*%
%TO.N,/A3*%
X165090000Y-71100000D03*
%TO.P,REF\u002A\u002A,14,Pin_14*%
%TO.N,/A2*%
X165090000Y-68560000D03*
%TO.P,REF\u002A\u002A,15,Pin_15*%
%TO.N,/A1*%
X165090000Y-66020000D03*
%TO.P,REF\u002A\u002A,16,Pin_16*%
%TO.N,/A0*%
X165090000Y-63480000D03*
%TD*%
D16*
%TO.P,REF\u002A\u002A,1*%
%TO.N,GND*%
X226600000Y-33310000D03*
D17*
%TO.P,REF\u002A\u002A,2*%
%TO.N,+5V*%
X229140000Y-33310000D03*
%TO.P,REF\u002A\u002A,3*%
%TO.N,PHER*%
X231680000Y-33310000D03*
%TO.P,REF\u002A\u002A,4*%
%TO.N,unconnected-(U5-CA2-Pad39)*%
X234220000Y-33310000D03*
%TO.P,REF\u002A\u002A,5*%
%TO.N,unconnected-(U5-CA1-Pad40)*%
X236760000Y-33310000D03*
%TO.P,REF\u002A\u002A,6*%
%TO.N,unconnected-(U5-PB7-Pad17)*%
X239300000Y-33310000D03*
%TO.P,REF\u002A\u002A,7*%
%TO.N,unconnected-(U5-CB1-Pad18)*%
X241840000Y-33310000D03*
%TO.P,REF\u002A\u002A,8*%
%TO.N,unconnected-(U5-CB2-Pad19)*%
X244380000Y-33310000D03*
%TD*%
D24*
%TO.P,J1,0,PAD*%
%TO.N,GND*%
X244670000Y-122095000D03*
X244670000Y-97095000D03*
D18*
%TO.P,J1,1,1*%
%TO.N,unconnected-(J1-Pad1)*%
X243250000Y-104055000D03*
D25*
%TO.P,J1,2,2*%
%TO.N,Net-(U6-T1OUT)*%
X243250000Y-106825000D03*
%TO.P,J1,3,3*%
%TO.N,Net-(U6-R1IN)*%
X243250000Y-109595000D03*
%TO.P,J1,4,4*%
%TO.N,unconnected-(J1-Pad4)*%
X243250000Y-112365000D03*
%TO.P,J1,5,5*%
%TO.N,GND*%
X243250000Y-115135000D03*
%TO.P,J1,6,6*%
%TO.N,unconnected-(J1-Pad6)*%
X246090000Y-105440000D03*
%TO.P,J1,7,7*%
%TO.N,unconnected-(J1-Pad7)*%
X246090000Y-108210000D03*
%TO.P,J1,8,8*%
%TO.N,unconnected-(J1-Pad8)*%
X246090000Y-110980000D03*
%TO.P,J1,9,9*%
%TO.N,unconnected-(J1-Pad9)*%
X246090000Y-113750000D03*
%TD*%
D16*
%TO.P,J3,1,Pin_1*%
%TO.N,/A15*%
X167630000Y-101580000D03*
D17*
%TO.P,J3,2,Pin_2*%
%TO.N,/A14*%
X167630000Y-99040000D03*
%TO.P,J3,3,Pin_3*%
%TO.N,/A13*%
X167630000Y-96500000D03*
%TO.P,J3,4,Pin_4*%
%TO.N,/A12*%
X167630000Y-93960000D03*
%TO.P,J3,5,Pin_5*%
%TO.N,/A11*%
X167630000Y-91420000D03*
%TO.P,J3,6,Pin_6*%
%TO.N,/A10*%
X167630000Y-88880000D03*
%TO.P,J3,7,Pin_7*%
%TO.N,/A9*%
X167630000Y-86340000D03*
%TO.P,J3,8,Pin_8*%
%TO.N,/A8*%
X167630000Y-83800000D03*
%TO.P,J3,9,Pin_9*%
%TO.N,/A7*%
X167630000Y-81260000D03*
%TO.P,J3,10,Pin_10*%
%TO.N,/A6*%
X167630000Y-78720000D03*
%TO.P,J3,11,Pin_11*%
%TO.N,/A5*%
X167630000Y-76180000D03*
%TO.P,J3,12,Pin_12*%
%TO.N,/A4*%
X167630000Y-73640000D03*
%TO.P,J3,13,Pin_13*%
%TO.N,/A3*%
X167630000Y-71100000D03*
%TO.P,J3,14,Pin_14*%
%TO.N,/A2*%
X167630000Y-68560000D03*
%TO.P,J3,15,Pin_15*%
%TO.N,/A1*%
X167630000Y-66020000D03*
%TO.P,J3,16,Pin_16*%
%TO.N,/A0*%
X167630000Y-63480000D03*
%TD*%
D16*
%TO.P,REF\u002A\u002A,1*%
%TO.N,/D7*%
X153800000Y-83770000D03*
D17*
%TO.P,REF\u002A\u002A,2*%
%TO.N,/D6*%
X153800000Y-86310000D03*
%TO.P,REF\u002A\u002A,3*%
%TO.N,/D5*%
X153800000Y-88850000D03*
%TO.P,REF\u002A\u002A,4*%
%TO.N,/D4*%
X153800000Y-91390000D03*
%TO.P,REF\u002A\u002A,5*%
%TO.N,/D3*%
X153800000Y-93930000D03*
%TO.P,REF\u002A\u002A,6*%
%TO.N,/D2*%
X153800000Y-96470000D03*
%TO.P,REF\u002A\u002A,7*%
%TO.N,/D1*%
X153800000Y-99010000D03*
%TO.P,REF\u002A\u002A,8*%
%TO.N,/D0*%
X153800000Y-101550000D03*
%TD*%
D26*
%TO.P,SW1,1,1*%
%TO.N,GND*%
X167700000Y-39260000D03*
X161200000Y-39260000D03*
%TO.P,SW1,2,2*%
%TO.N,RESET*%
X167700000Y-34760000D03*
X161200000Y-34760000D03*
%TD*%
D27*
%TO.P,U4,1*%
%TO.N,/A14*%
X192430000Y-103130000D03*
D28*
%TO.P,U4,2*%
%TO.N,Net-(U2-~{CS})*%
X194970000Y-103130000D03*
%TO.P,U4,3*%
%TO.N,PHER*%
X197510000Y-103130000D03*
%TO.P,U4,4*%
%TO.N,unconnected-(U4-Pad4)*%
X200050000Y-103130000D03*
%TO.P,U4,5*%
%TO.N,unconnected-(U4-Pad5)*%
X202590000Y-103130000D03*
%TO.P,U4,6*%
%TO.N,unconnected-(U4-Pad6)*%
X205130000Y-103130000D03*
%TO.P,U4,7,GND*%
%TO.N,GND*%
X207670000Y-103130000D03*
%TO.P,U4,8*%
%TO.N,Net-(U3-~{CS})*%
X207670000Y-95510000D03*
%TO.P,U4,9*%
%TO.N,CLK*%
X205130000Y-95510000D03*
%TO.P,U4,10*%
%TO.N,Net-(U2-~{CS})*%
X202590000Y-95510000D03*
%TO.P,U4,11*%
X200050000Y-95510000D03*
%TO.P,U4,12*%
%TO.N,/A15*%
X197510000Y-95510000D03*
%TO.P,U4,13*%
X194970000Y-95510000D03*
%TO.P,U4,14,VCC*%
%TO.N,+5V*%
X192430000Y-95510000D03*
%TD*%
D10*
%TO.P,U3,1,A14*%
%TO.N,/A14*%
X193530000Y-52850000D03*
D11*
%TO.P,U3,2,A12*%
%TO.N,/A12*%
X193530000Y-55390000D03*
%TO.P,U3,3,A7*%
%TO.N,/A7*%
X193530000Y-57930000D03*
%TO.P,U3,4,A6*%
%TO.N,/A6*%
X193530000Y-60470000D03*
%TO.P,U3,5,A5*%
%TO.N,/A5*%
X193530000Y-63010000D03*
%TO.P,U3,6,A4*%
%TO.N,/A4*%
X193530000Y-65550000D03*
%TO.P,U3,7,A3*%
%TO.N,/A3*%
X193530000Y-68090000D03*
%TO.P,U3,8,A2*%
%TO.N,/A2*%
X193530000Y-70630000D03*
%TO.P,U3,9,A1*%
%TO.N,/A1*%
X193530000Y-73170000D03*
%TO.P,U3,10,A0*%
%TO.N,/A0*%
X193530000Y-75710000D03*
%TO.P,U3,11,D0*%
%TO.N,/D0*%
X193530000Y-78250000D03*
%TO.P,U3,12,D1*%
%TO.N,/D1*%
X193530000Y-80790000D03*
%TO.P,U3,13,D2*%
%TO.N,/D2*%
X193530000Y-83330000D03*
%TO.P,U3,14,GND*%
%TO.N,GND*%
X193530000Y-85870000D03*
%TO.P,U3,15,D3*%
%TO.N,/D3*%
X201150000Y-85870000D03*
%TO.P,U3,16,D4*%
%TO.N,/D4*%
X201150000Y-83330000D03*
%TO.P,U3,17,D5*%
%TO.N,/D5*%
X201150000Y-80790000D03*
%TO.P,U3,18,D6*%
%TO.N,/D6*%
X201150000Y-78250000D03*
%TO.P,U3,19,D7*%
%TO.N,/D7*%
X201150000Y-75710000D03*
%TO.P,U3,20,~{CS}*%
%TO.N,Net-(U3-~{CS})*%
X201150000Y-73170000D03*
%TO.P,U3,21,A10*%
%TO.N,/A10*%
X201150000Y-70630000D03*
%TO.P,U3,22,~{OE}*%
%TO.N,GND*%
X201150000Y-68090000D03*
%TO.P,U3,23,A11*%
%TO.N,/A11*%
X201150000Y-65550000D03*
%TO.P,U3,24,A9*%
%TO.N,/A9*%
X201150000Y-63010000D03*
%TO.P,U3,25,A8*%
%TO.N,/A8*%
X201150000Y-60470000D03*
%TO.P,U3,26,A13*%
%TO.N,/A13*%
X201150000Y-57930000D03*
%TO.P,U3,27,~{WE}*%
%TO.N,R{slash}~{W}*%
X201150000Y-55390000D03*
%TO.P,U3,28,VCC*%
%TO.N,+5V*%
X201150000Y-52850000D03*
%TD*%
D18*
%TO.P,X1,1,EN*%
%TO.N,unconnected-(X1-EN-Pad1)*%
X190860000Y-47810000D03*
D25*
%TO.P,X1,4,GND*%
%TO.N,GND*%
X198480000Y-47810000D03*
%TO.P,X1,5,OUT*%
%TO.N,CLK*%
X198480000Y-40190000D03*
%TO.P,X1,8,Vcc*%
%TO.N,+5V*%
X190860000Y-40190000D03*
%TD*%
D16*
%TO.P,REF\u002A\u002A,1*%
%TO.N,unconnected-(U5-PA0-Pad2)*%
X226600000Y-35850000D03*
D17*
%TO.P,REF\u002A\u002A,2*%
%TO.N,unconnected-(U5-PA1-Pad3)*%
X229140000Y-35850000D03*
%TO.P,REF\u002A\u002A,3*%
%TO.N,unconnected-(U5-PA2-Pad4)*%
X231680000Y-35850000D03*
%TO.P,REF\u002A\u002A,4*%
%TO.N,unconnected-(U5-PA3-Pad5)*%
X234220000Y-35850000D03*
%TO.P,REF\u002A\u002A,5*%
%TO.N,unconnected-(U5-PA4-Pad6)*%
X236760000Y-35850000D03*
%TO.P,REF\u002A\u002A,6*%
%TO.N,unconnected-(U5-PA5-Pad7)*%
X239300000Y-35850000D03*
%TO.P,REF\u002A\u002A,7*%
%TO.N,unconnected-(U5-PA6-Pad8)*%
X241840000Y-35850000D03*
%TO.P,REF\u002A\u002A,8*%
%TO.N,unconnected-(U5-PA7-Pad9)*%
X244380000Y-35850000D03*
%TD*%
D18*
%TO.P,U5,1,GND*%
%TO.N,GND*%
X244770000Y-91550000D03*
D19*
%TO.P,U5,2,PA0*%
%TO.N,unconnected-(U5-PA0-Pad2)*%
X244770000Y-89010000D03*
%TO.P,U5,3,PA1*%
%TO.N,unconnected-(U5-PA1-Pad3)*%
X244770000Y-86470000D03*
%TO.P,U5,4,PA2*%
%TO.N,unconnected-(U5-PA2-Pad4)*%
X244770000Y-83930000D03*
%TO.P,U5,5,PA3*%
%TO.N,unconnected-(U5-PA3-Pad5)*%
X244770000Y-81390000D03*
%TO.P,U5,6,PA4*%
%TO.N,unconnected-(U5-PA4-Pad6)*%
X244770000Y-78850000D03*
%TO.P,U5,7,PA5*%
%TO.N,unconnected-(U5-PA5-Pad7)*%
X244770000Y-76310000D03*
%TO.P,U5,8,PA6*%
%TO.N,unconnected-(U5-PA6-Pad8)*%
X244770000Y-73770000D03*
%TO.P,U5,9,PA7*%
%TO.N,unconnected-(U5-PA7-Pad9)*%
X244770000Y-71230000D03*
%TO.P,U5,10,PB0*%
%TO.N,Net-(DS1-D4)*%
X244770000Y-68690000D03*
%TO.P,U5,11,PB1*%
%TO.N,Net-(DS1-D5)*%
X244770000Y-66150000D03*
%TO.P,U5,12,PB2*%
%TO.N,Net-(DS1-D6)*%
X244770000Y-63610000D03*
%TO.P,U5,13,PB3*%
%TO.N,Net-(DS1-D7)*%
X244770000Y-61070000D03*
%TO.P,U5,14,PB4*%
%TO.N,Net-(DS1-RS)*%
X244770000Y-58530000D03*
%TO.P,U5,15,PB5*%
%TO.N,Net-(DS1-R{slash}W)*%
X244770000Y-55990000D03*
%TO.P,U5,16,PB6*%
%TO.N,Net-(DS1-E)*%
X244770000Y-53450000D03*
%TO.P,U5,17,PB7*%
%TO.N,unconnected-(U5-PB7-Pad17)*%
X244770000Y-50910000D03*
%TO.P,U5,18,CB1*%
%TO.N,unconnected-(U5-CB1-Pad18)*%
X244770000Y-48370000D03*
%TO.P,U5,19,CB2*%
%TO.N,unconnected-(U5-CB2-Pad19)*%
X244770000Y-45830000D03*
%TO.P,U5,20,VCC*%
%TO.N,+5V*%
X244770000Y-43290000D03*
%TO.P,U5,21,IRQ*%
%TO.N,Net-(D1-K)*%
X229530000Y-43290000D03*
%TO.P,U5,22,R/~{W}*%
%TO.N,R{slash}~{W}*%
X229530000Y-45830000D03*
%TO.P,U5,23,~{CS2}*%
%TO.N,PHER*%
X229530000Y-48370000D03*
%TO.P,U5,24,CS1*%
%TO.N,/A13*%
X229530000Y-50910000D03*
%TO.P,U5,25,PHI2*%
%TO.N,CLK*%
X229530000Y-53450000D03*
%TO.P,U5,26,D7*%
%TO.N,/D7*%
X229530000Y-55990000D03*
%TO.P,U5,27,D6*%
%TO.N,/D6*%
X229530000Y-58530000D03*
%TO.P,U5,28,D5*%
%TO.N,/D5*%
X229530000Y-61070000D03*
%TO.P,U5,29,D4*%
%TO.N,/D4*%
X229530000Y-63610000D03*
%TO.P,U5,30,D3*%
%TO.N,/D3*%
X229530000Y-66150000D03*
%TO.P,U5,31,D2*%
%TO.N,/D2*%
X229530000Y-68690000D03*
%TO.P,U5,32,D1*%
%TO.N,/D1*%
X229530000Y-71230000D03*
%TO.P,U5,33,D0*%
%TO.N,/D0*%
X229530000Y-73770000D03*
%TO.P,U5,34,~{RESET}*%
%TO.N,RESET*%
X229530000Y-76310000D03*
%TO.P,U5,35,RS3*%
%TO.N,/A3*%
X229530000Y-78850000D03*
%TO.P,U5,36,RS2*%
%TO.N,/A2*%
X229530000Y-81390000D03*
%TO.P,U5,37,RS1*%
%TO.N,/A1*%
X229530000Y-83930000D03*
%TO.P,U5,38,RS0*%
%TO.N,/A0*%
X229530000Y-86470000D03*
%TO.P,U5,39,CA2*%
%TO.N,unconnected-(U5-CA2-Pad39)*%
X229530000Y-89010000D03*
%TO.P,U5,40,CA1*%
%TO.N,unconnected-(U5-CA1-Pad40)*%
X229530000Y-91550000D03*
%TD*%
D29*
%TO.N,+5V*%
X192560000Y-48910000D03*
X185430000Y-52020000D03*
X187400000Y-53350000D03*
D30*
X243355000Y-69960000D03*
D29*
X187270000Y-95810000D03*
D30*
%TO.N,Net-(DS1-D4)*%
X240590000Y-52160000D03*
%TO.N,Net-(DS1-D5)*%
X241420000Y-49650000D03*
%TO.N,Net-(DS1-D6)*%
X242340000Y-47100000D03*
%TO.N,Net-(DS1-D7)*%
X243290000Y-44550000D03*
%TO.N,/A0*%
X217740000Y-93270000D03*
X172090000Y-85060000D03*
D29*
X218670000Y-76940000D03*
D30*
%TO.N,/A1*%
X172950000Y-66010000D03*
X172950000Y-82520000D03*
X218620000Y-93880000D03*
D29*
X215960000Y-93710000D03*
X217700000Y-74770000D03*
D30*
X227710000Y-91940000D03*
D29*
%TO.N,/A2*%
X221880000Y-74460000D03*
D30*
X173830000Y-79990000D03*
X173830000Y-68550000D03*
D29*
%TO.N,/A3*%
X222640000Y-69330000D03*
D30*
X174690000Y-74900000D03*
X174690000Y-71100000D03*
%TO.N,/A5*%
X177130000Y-71470000D03*
X176540000Y-75750000D03*
%TO.N,/A6*%
X176760000Y-78700000D03*
X180840000Y-68050000D03*
%TO.N,/A7*%
X178090000Y-68040000D03*
X175690000Y-81250000D03*
%TO.N,/A8*%
X177600000Y-83790000D03*
X179910000Y-69140000D03*
%TO.N,/A9*%
X178460000Y-86330000D03*
X181870000Y-67450000D03*
%TO.N,/A10*%
X179310000Y-88870000D03*
X179310000Y-77460000D03*
%TO.N,/A11*%
X183570000Y-68440000D03*
X180170000Y-91420000D03*
%TO.N,/A12*%
X184900000Y-54580000D03*
D31*
X183310000Y-93960000D03*
D30*
X181030000Y-88860000D03*
D31*
%TO.N,/A13*%
X188640000Y-86330000D03*
D30*
%TO.N,/A14*%
X190560000Y-85320000D03*
D31*
%TO.N,/A15*%
X191490000Y-101260000D03*
D30*
X189720000Y-84470000D03*
D31*
X193340000Y-101290000D03*
D30*
%TO.N,/D7*%
X213800000Y-107700000D03*
%TO.N,/D6*%
X214850000Y-108850000D03*
%TO.N,/D5*%
X215850000Y-109800000D03*
%TO.N,/D4*%
X216890500Y-110650000D03*
D29*
%TO.N,/D3*%
X207150000Y-121050000D03*
D30*
%TO.N,/D2*%
X219470000Y-94600000D03*
D29*
X207150000Y-121749503D03*
D30*
X219470000Y-84630000D03*
X219550000Y-114250000D03*
%TO.N,/D1*%
X220320000Y-82120000D03*
X220400000Y-116800000D03*
X220400000Y-93730000D03*
D29*
X207150000Y-122449006D03*
D30*
%TO.N,/D0*%
X221180000Y-92820000D03*
X221300000Y-119350000D03*
X221190000Y-79530000D03*
D29*
X207150000Y-123148509D03*
%TO.N,R{slash}~{W}*%
X191350000Y-54400000D03*
%TO.N,CLK*%
X223900000Y-50340000D03*
X195980000Y-48340000D03*
X227520000Y-95490000D03*
%TO.N,Net-(U2-~{CS})*%
X216730000Y-91540000D03*
%TO.N,PHER*%
X216070000Y-96560000D03*
X216050000Y-102820000D03*
%TO.N,RESET*%
X223960000Y-51580000D03*
X216860000Y-105380000D03*
X216860000Y-94380000D03*
%TO.N,GND*%
X191110000Y-44410000D03*
%TO.N,IRQ*%
X193670000Y-45800000D03*
X234332500Y-39830000D03*
X229180000Y-107632500D03*
X228260000Y-44580000D03*
%TO.N,unconnected-(U5-PA0-Pad2)*%
X236029500Y-78269500D03*
%TO.N,unconnected-(U5-PA1-Pad3)*%
X236728280Y-78301286D03*
%TO.N,unconnected-(U5-PA2-Pad4)*%
X237427781Y-78299901D03*
%TO.N,unconnected-(U5-PA3-Pad5)*%
X238127283Y-78300004D03*
%TO.N,unconnected-(U5-PA4-Pad6)*%
X238826785Y-78300000D03*
%TO.N,unconnected-(U5-PA5-Pad7)*%
X239029500Y-76200000D03*
%TO.N,unconnected-(U5-PA6-Pad8)*%
X239629500Y-73800000D03*
%TO.N,unconnected-(U5-PA7-Pad9)*%
X240250000Y-70450000D03*
%TO.N,unconnected-(U5-PB7-Pad17)*%
X240150000Y-43750000D03*
%TO.N,unconnected-(U5-CB1-Pad18)*%
X240850000Y-43800000D03*
%TO.N,unconnected-(U5-CB2-Pad19)*%
X241580378Y-43630378D03*
%TO.N,unconnected-(U5-CA2-Pad39)*%
X237450000Y-83050000D03*
X238750000Y-43550000D03*
%TO.N,unconnected-(U5-CA1-Pad40)*%
X239450000Y-43700000D03*
X238000000Y-83550000D03*
%TD*%
D32*
%TO.N,+5V*%
X243355000Y-69960000D02*
X243355000Y-77600000D01*
X204900000Y-52850000D02*
X206420000Y-51330000D01*
D33*
X161200000Y-62801472D02*
X161200000Y-63100000D01*
X160100000Y-75250000D02*
X158050000Y-75250000D01*
D32*
X186720000Y-52020000D02*
X185430000Y-52020000D01*
D33*
X170830000Y-55850000D02*
X168151472Y-55850000D01*
D32*
X192560000Y-48940000D02*
X196470000Y-52850000D01*
X250860000Y-76300000D02*
X249560000Y-77600000D01*
X192560000Y-48910000D02*
X192560000Y-48940000D01*
X196470000Y-52850000D02*
X201150000Y-52850000D01*
X243355000Y-94745000D02*
X241940000Y-96160000D01*
D33*
X153800000Y-77800000D02*
X155095344Y-79095344D01*
X163000000Y-63700000D02*
X167060000Y-59640000D01*
D32*
X240410000Y-107840000D02*
X240410000Y-111300000D01*
D33*
X163000000Y-76700000D02*
X163000000Y-63700000D01*
D32*
X250860000Y-76290000D02*
X250860000Y-76300000D01*
X241940000Y-106310000D02*
X240410000Y-107840000D01*
X210370000Y-52850000D02*
X222920000Y-52850000D01*
D33*
X160604656Y-79095344D02*
X163000000Y-76700000D01*
X161200000Y-74150000D02*
X160100000Y-75250000D01*
X167060000Y-59640000D02*
X168300000Y-59640000D01*
D32*
X249560000Y-77600000D02*
X243355000Y-77600000D01*
D33*
X158040000Y-75260000D02*
X156340000Y-75260000D01*
X155095344Y-79095344D02*
X160604656Y-79095344D01*
D32*
X208850000Y-51330000D02*
X210370000Y-52850000D01*
X192130000Y-95810000D02*
X192430000Y-95510000D01*
X250850000Y-43280000D02*
X250860000Y-43270000D01*
X241940000Y-96160000D02*
X241940000Y-106310000D01*
X206420000Y-51330000D02*
X208850000Y-51330000D01*
X201150000Y-52850000D02*
X204900000Y-52850000D01*
X243355000Y-77600000D02*
X243355000Y-94745000D01*
X245570000Y-43280000D02*
X250850000Y-43280000D01*
D33*
X168151472Y-55850000D02*
X161200000Y-62801472D01*
X161200000Y-63100000D02*
X161200000Y-74150000D01*
D32*
X240410000Y-111300000D02*
X238710000Y-113000000D01*
D33*
X186070000Y-53310000D02*
X184840000Y-53310000D01*
X184840000Y-53310000D02*
X178510000Y-59640000D01*
X178510000Y-59640000D02*
X168300000Y-59640000D01*
X158050000Y-75250000D02*
X158040000Y-75260000D01*
D32*
X187400000Y-52700000D02*
X186720000Y-52020000D01*
X187270000Y-95810000D02*
X192130000Y-95810000D01*
X187400000Y-53350000D02*
X187400000Y-52700000D01*
%TO.N,Net-(DS1-VO)*%
X252850000Y-80280000D02*
X249830000Y-83300000D01*
X250860000Y-73750000D02*
X252850000Y-75740000D01*
X252850000Y-75740000D02*
X252850000Y-80280000D01*
X249830000Y-83300000D02*
X249830000Y-86235000D01*
%TO.N,Net-(DS1-RS)*%
X250850000Y-71210000D02*
X250860000Y-71210000D01*
X246870000Y-67230000D02*
X250850000Y-71210000D01*
X244770000Y-58530000D02*
X245580000Y-58530000D01*
X246870000Y-59820000D02*
X246870000Y-67230000D01*
X245580000Y-58530000D02*
X246870000Y-59820000D01*
%TO.N,Net-(DS1-R{slash}W)*%
X247610000Y-65420000D02*
X250860000Y-68670000D01*
X247610000Y-58830000D02*
X247610000Y-65420000D01*
X244770000Y-55990000D02*
X247610000Y-58830000D01*
%TO.N,Net-(DS1-E)*%
X244770000Y-53450000D02*
X248400000Y-57080000D01*
X248400000Y-57080000D02*
X248400000Y-63670000D01*
X248400000Y-63670000D02*
X250860000Y-66130000D01*
%TO.N,Net-(DS1-D4)*%
X250850000Y-53440000D02*
X250860000Y-53430000D01*
X245320000Y-52160000D02*
X246600000Y-53440000D01*
X246600000Y-53440000D02*
X250850000Y-53440000D01*
X240590000Y-52160000D02*
X245320000Y-52160000D01*
%TO.N,Net-(DS1-D5)*%
X245360000Y-49650000D02*
X246610000Y-50900000D01*
X246610000Y-50900000D02*
X250850000Y-50900000D01*
X241420000Y-49650000D02*
X245360000Y-49650000D01*
X250850000Y-50900000D02*
X250860000Y-50890000D01*
%TO.N,Net-(DS1-D6)*%
X246610000Y-48360000D02*
X250850000Y-48360000D01*
X245350000Y-47100000D02*
X246610000Y-48360000D01*
X250850000Y-48360000D02*
X250860000Y-48350000D01*
X242340000Y-47100000D02*
X245350000Y-47100000D01*
%TO.N,Net-(DS1-D7)*%
X245310000Y-44550000D02*
X246570000Y-45810000D01*
X246570000Y-45810000D02*
X250860000Y-45810000D01*
X243290000Y-44550000D02*
X245310000Y-44550000D01*
%TO.N,/A0*%
X191180000Y-80560000D02*
X186680000Y-85060000D01*
X193530000Y-75710000D02*
X191180000Y-78060000D01*
X210340000Y-76650000D02*
X210630000Y-76940000D01*
X186680000Y-85060000D02*
X172090000Y-85060000D01*
X219940000Y-91070000D02*
X224930000Y-91070000D01*
X210865000Y-128235000D02*
X210885000Y-128235000D01*
X204480000Y-76980000D02*
X196380000Y-76980000D01*
X191180000Y-78060000D02*
X191180000Y-80560000D01*
X207680000Y-75710000D02*
X205750000Y-75710000D01*
X209400000Y-75710000D02*
X210340000Y-76650000D01*
X170830000Y-63470000D02*
X170820000Y-63480000D01*
X224930000Y-91070000D02*
X229530000Y-86470000D01*
X170820000Y-63480000D02*
X167630000Y-63480000D01*
X207680000Y-75710000D02*
X209400000Y-75710000D01*
X165090000Y-63480000D02*
X167630000Y-63480000D01*
X196380000Y-76980000D02*
X195110000Y-75710000D01*
X205750000Y-75710000D02*
X204480000Y-76980000D01*
X195110000Y-75710000D02*
X193530000Y-75710000D01*
X210630000Y-76940000D02*
X218670000Y-76940000D01*
X217740000Y-93270000D02*
X219940000Y-91070000D01*
%TO.N,/A1*%
X210865000Y-130775000D02*
X210885000Y-130775000D01*
X220560000Y-91940000D02*
X218620000Y-93880000D01*
X215960000Y-94610000D02*
X216510000Y-95160000D01*
X205740000Y-73170000D02*
X204470000Y-74440000D01*
X186700000Y-82520000D02*
X172950000Y-82520000D01*
X210290000Y-74120000D02*
X210940000Y-74770000D01*
X195060000Y-73170000D02*
X193530000Y-73170000D01*
X190260000Y-78960000D02*
X186700000Y-82520000D01*
X167640000Y-66010000D02*
X167630000Y-66020000D01*
X190260000Y-76440000D02*
X190260000Y-78960000D01*
X165090000Y-66020000D02*
X167630000Y-66020000D01*
X216510000Y-95160000D02*
X217340000Y-95160000D01*
X193530000Y-73170000D02*
X190260000Y-76440000D01*
X170830000Y-66010000D02*
X172950000Y-66010000D01*
X196330000Y-74440000D02*
X195060000Y-73170000D01*
X215960000Y-93710000D02*
X215960000Y-94610000D01*
X207680000Y-73170000D02*
X205740000Y-73170000D01*
X207680000Y-73170000D02*
X209340000Y-73170000D01*
X209340000Y-73170000D02*
X210290000Y-74120000D01*
X204470000Y-74440000D02*
X196330000Y-74440000D01*
X170830000Y-66010000D02*
X167640000Y-66010000D01*
X217340000Y-95160000D02*
X218620000Y-93880000D01*
X227710000Y-91940000D02*
X220560000Y-91940000D01*
X210940000Y-74770000D02*
X217700000Y-74770000D01*
%TO.N,/A2*%
X221880000Y-74460000D02*
X221840000Y-74460000D01*
X207680000Y-70630000D02*
X206120000Y-70630000D01*
X221180000Y-73810000D02*
X219990000Y-72620000D01*
X189380000Y-77420000D02*
X186810000Y-79990000D01*
X219990000Y-72620000D02*
X210500000Y-72620000D01*
X170830000Y-68550000D02*
X167640000Y-68550000D01*
X204850000Y-71900000D02*
X196310000Y-71900000D01*
X167640000Y-68550000D02*
X167630000Y-68560000D01*
X189380000Y-74780000D02*
X189380000Y-77420000D01*
X221190000Y-73810000D02*
X221180000Y-73810000D01*
X195040000Y-70630000D02*
X193530000Y-70630000D01*
X210500000Y-72620000D02*
X208510000Y-70630000D01*
X208510000Y-70630000D02*
X207680000Y-70630000D01*
X165090000Y-68560000D02*
X167630000Y-68560000D01*
X196310000Y-71900000D02*
X195040000Y-70630000D01*
X206120000Y-70630000D02*
X204850000Y-71900000D01*
X193530000Y-70630000D02*
X189380000Y-74780000D01*
X170830000Y-68550000D02*
X173830000Y-68550000D01*
X221840000Y-74460000D02*
X221190000Y-73810000D01*
X186810000Y-79990000D02*
X173830000Y-79990000D01*
%TO.N,/A3*%
X209920000Y-69330000D02*
X208680000Y-68090000D01*
X165090000Y-71100000D02*
X167630000Y-71100000D01*
X193530000Y-68090000D02*
X192860000Y-68090000D01*
X192860000Y-68090000D02*
X187640000Y-73310000D01*
X187640000Y-73310000D02*
X187640000Y-74180000D01*
X222640000Y-69330000D02*
X209920000Y-69330000D01*
X208680000Y-68090000D02*
X207680000Y-68090000D01*
X170830000Y-71090000D02*
X173330000Y-71090000D01*
X206340000Y-68090000D02*
X207680000Y-68090000D01*
X174680000Y-71090000D02*
X174690000Y-71100000D01*
X167640000Y-71090000D02*
X167630000Y-71100000D01*
X195210000Y-68090000D02*
X196480000Y-69360000D01*
X186920000Y-74900000D02*
X174690000Y-74900000D01*
X193530000Y-68090000D02*
X195210000Y-68090000D01*
X196480000Y-69360000D02*
X205070000Y-69360000D01*
X205070000Y-69360000D02*
X206340000Y-68090000D01*
X173330000Y-71090000D02*
X174680000Y-71090000D01*
X170830000Y-71090000D02*
X167640000Y-71090000D01*
X187640000Y-74180000D02*
X186920000Y-74900000D01*
%TO.N,/A4*%
X172100000Y-72360000D02*
X170830000Y-73630000D01*
X206220000Y-65550000D02*
X207680000Y-65550000D01*
X193530000Y-65550000D02*
X195320000Y-65550000D01*
X193530000Y-65550000D02*
X186720000Y-72360000D01*
X170820000Y-73640000D02*
X170830000Y-73630000D01*
X195320000Y-65550000D02*
X196590000Y-66820000D01*
X196590000Y-66820000D02*
X204950000Y-66820000D01*
X204950000Y-66820000D02*
X206220000Y-65550000D01*
X165090000Y-73640000D02*
X167630000Y-73640000D01*
X186720000Y-72360000D02*
X172100000Y-72360000D01*
X167630000Y-73640000D02*
X170820000Y-73640000D01*
%TO.N,/A5*%
X204920000Y-64280000D02*
X206190000Y-63010000D01*
X176540000Y-75750000D02*
X176120000Y-76170000D01*
X183380000Y-67300000D02*
X188450000Y-67300000D01*
X195310000Y-63010000D02*
X196580000Y-64280000D01*
X167630000Y-76180000D02*
X170820000Y-76180000D01*
X176120000Y-76170000D02*
X170830000Y-76170000D01*
X193530000Y-63010000D02*
X195310000Y-63010000D01*
X179600000Y-71080000D02*
X183380000Y-67300000D01*
X165090000Y-76180000D02*
X167630000Y-76180000D01*
X192740000Y-63010000D02*
X193530000Y-63010000D01*
X177130000Y-71470000D02*
X177520000Y-71080000D01*
X188450000Y-67300000D02*
X192740000Y-63010000D01*
X206190000Y-63010000D02*
X207680000Y-63010000D01*
X196580000Y-64280000D02*
X204920000Y-64280000D01*
X177520000Y-71080000D02*
X179600000Y-71080000D01*
X170820000Y-76180000D02*
X170830000Y-76170000D01*
%TO.N,/A6*%
X170820000Y-78720000D02*
X170830000Y-78710000D01*
X175890000Y-78710000D02*
X176750000Y-78710000D01*
X196480000Y-61740000D02*
X204970000Y-61740000D01*
X195210000Y-60470000D02*
X196480000Y-61740000D01*
X176750000Y-78710000D02*
X176760000Y-78700000D01*
X193530000Y-60470000D02*
X195210000Y-60470000D01*
X192230000Y-60470000D02*
X193530000Y-60470000D01*
X204970000Y-61740000D02*
X206240000Y-60470000D01*
X165090000Y-78720000D02*
X167630000Y-78720000D01*
X206240000Y-60470000D02*
X207680000Y-60470000D01*
X180840000Y-68050000D02*
X180840000Y-66630000D01*
X170830000Y-78710000D02*
X175890000Y-78710000D01*
X185260000Y-62210000D02*
X190490000Y-62210000D01*
X190490000Y-62210000D02*
X192230000Y-60470000D01*
X180840000Y-66630000D02*
X185260000Y-62210000D01*
X167630000Y-78720000D02*
X170820000Y-78720000D01*
%TO.N,/A7*%
X185340000Y-57120000D02*
X180260000Y-62200000D01*
X170830000Y-81250000D02*
X175690000Y-81250000D01*
X170820000Y-81260000D02*
X170830000Y-81250000D01*
X180260000Y-62200000D02*
X178090000Y-64370000D01*
X195240000Y-57930000D02*
X196510000Y-59200000D01*
X193530000Y-57930000D02*
X191940000Y-57930000D01*
X193530000Y-57930000D02*
X195240000Y-57930000D01*
X165090000Y-81260000D02*
X167630000Y-81260000D01*
X205970000Y-57930000D02*
X207680000Y-57930000D01*
X196510000Y-59200000D02*
X204700000Y-59200000D01*
X191940000Y-57930000D02*
X191130000Y-57120000D01*
X178090000Y-64370000D02*
X178090000Y-68040000D01*
X204700000Y-59200000D02*
X205970000Y-57930000D01*
X191130000Y-57120000D02*
X185340000Y-57120000D01*
X167630000Y-81260000D02*
X170820000Y-81260000D01*
%TO.N,/A8*%
X170820000Y-83800000D02*
X170830000Y-83790000D01*
X165090000Y-83800000D02*
X167630000Y-83800000D01*
X204860000Y-60470000D02*
X206130000Y-59200000D01*
X208740000Y-59200000D02*
X210010000Y-60470000D01*
X167630000Y-83800000D02*
X170820000Y-83800000D01*
X170830000Y-83790000D02*
X177600000Y-83790000D01*
X210010000Y-60470000D02*
X222920000Y-60470000D01*
X206130000Y-59200000D02*
X208740000Y-59200000D01*
X196440000Y-60470000D02*
X201150000Y-60470000D01*
X195190000Y-59220000D02*
X196440000Y-60470000D01*
X185210000Y-59660000D02*
X191470000Y-59660000D01*
X191470000Y-59660000D02*
X191910000Y-59220000D01*
X179920000Y-64950000D02*
X185210000Y-59660000D01*
X191910000Y-59220000D02*
X195190000Y-59220000D01*
X179920000Y-69130000D02*
X179920000Y-64950000D01*
X201150000Y-60470000D02*
X204860000Y-60470000D01*
X179910000Y-69140000D02*
X179920000Y-69130000D01*
%TO.N,/A9*%
X206260000Y-61740000D02*
X208550000Y-61740000D01*
X192520000Y-61740000D02*
X195220000Y-61740000D01*
X165090000Y-86340000D02*
X167630000Y-86340000D01*
X167630000Y-86340000D02*
X170820000Y-86340000D01*
X201150000Y-63010000D02*
X204990000Y-63010000D01*
X170820000Y-86340000D02*
X170830000Y-86330000D01*
X181870000Y-67450000D02*
X184580000Y-64740000D01*
X184580000Y-64740000D02*
X189520000Y-64740000D01*
X208550000Y-61740000D02*
X209820000Y-63010000D01*
X170830000Y-86330000D02*
X178460000Y-86330000D01*
X209820000Y-63010000D02*
X222920000Y-63010000D01*
X195220000Y-61740000D02*
X196490000Y-63010000D01*
X196490000Y-63010000D02*
X201150000Y-63010000D01*
X204990000Y-63010000D02*
X206260000Y-61740000D01*
X189520000Y-64740000D02*
X192520000Y-61740000D01*
%TO.N,/A10*%
X201150000Y-70630000D02*
X196290000Y-70630000D01*
X204990000Y-70630000D02*
X206260000Y-69360000D01*
X167630000Y-88880000D02*
X170820000Y-88880000D01*
X195020000Y-69360000D02*
X192610000Y-69360000D01*
X186770000Y-77450000D02*
X179320000Y-77450000D01*
X192610000Y-69360000D02*
X188530000Y-73440000D01*
X165090000Y-88880000D02*
X167630000Y-88880000D01*
X179320000Y-77450000D02*
X179310000Y-77460000D01*
X208520000Y-69360000D02*
X209790000Y-70630000D01*
X170830000Y-88870000D02*
X179310000Y-88870000D01*
X196290000Y-70630000D02*
X195020000Y-69360000D01*
X170820000Y-88880000D02*
X170830000Y-88870000D01*
X206260000Y-69360000D02*
X208520000Y-69360000D01*
X209790000Y-70630000D02*
X222920000Y-70630000D01*
X188530000Y-73440000D02*
X188530000Y-75690000D01*
X201150000Y-70630000D02*
X204990000Y-70630000D01*
X188530000Y-75690000D02*
X186770000Y-77450000D01*
%TO.N,/A11*%
X204920000Y-65550000D02*
X206180000Y-64290000D01*
X170820000Y-91420000D02*
X170830000Y-91410000D01*
X208550000Y-64290000D02*
X209810000Y-65550000D01*
X201150000Y-65550000D02*
X196540000Y-65550000D01*
X196540000Y-65550000D02*
X195270000Y-64280000D01*
X187060000Y-69820000D02*
X184950000Y-69820000D01*
X184950000Y-69820000D02*
X183570000Y-68440000D01*
X192600000Y-64280000D02*
X187060000Y-69820000D01*
X195270000Y-64280000D02*
X192600000Y-64280000D01*
X180170000Y-91420000D02*
X180160000Y-91410000D01*
X167630000Y-91420000D02*
X170820000Y-91420000D01*
X206180000Y-64290000D02*
X208550000Y-64290000D01*
X209810000Y-65550000D02*
X222920000Y-65550000D01*
X180160000Y-91410000D02*
X170830000Y-91410000D01*
X165090000Y-91420000D02*
X167630000Y-91420000D01*
X201150000Y-65550000D02*
X204920000Y-65550000D01*
%TO.N,/A12*%
X193530000Y-55390000D02*
X187440000Y-55390000D01*
X195180000Y-55390000D02*
X196450000Y-56660000D01*
X206460000Y-55390000D02*
X207680000Y-55390000D01*
X187440000Y-55390000D02*
X186780000Y-54730000D01*
X186070000Y-88870000D02*
X181040000Y-88870000D01*
X186780000Y-54730000D02*
X186630000Y-54580000D01*
X185450000Y-54580000D02*
X184900000Y-54580000D01*
X165090000Y-93960000D02*
X167630000Y-93960000D01*
X205190000Y-56660000D02*
X206460000Y-55390000D01*
X186630000Y-54580000D02*
X185450000Y-54580000D01*
X193530000Y-55390000D02*
X195180000Y-55390000D01*
X167630000Y-93960000D02*
X183310000Y-93960000D01*
X181040000Y-88870000D02*
X181030000Y-88860000D01*
X196450000Y-56660000D02*
X205190000Y-56660000D01*
%TO.N,/A13*%
X204950000Y-57930000D02*
X206200000Y-56680000D01*
X208520000Y-56680000D02*
X209770000Y-57930000D01*
X165090000Y-96500000D02*
X167630000Y-96500000D01*
X222920000Y-57930000D02*
X229530000Y-51320000D01*
X182890000Y-96500000D02*
X188640000Y-90750000D01*
X201150000Y-57930000D02*
X204950000Y-57930000D01*
X209770000Y-57930000D02*
X222920000Y-57930000D01*
X206200000Y-56680000D02*
X208520000Y-56680000D01*
X167630000Y-96500000D02*
X182890000Y-96500000D01*
X229530000Y-51320000D02*
X229530000Y-50910000D01*
X188640000Y-90750000D02*
X188640000Y-86330000D01*
%TO.N,/A14*%
X192430000Y-99070000D02*
X192400000Y-99040000D01*
X193720000Y-99040000D02*
X192400000Y-99040000D01*
X196220000Y-94370000D02*
X196220000Y-96540000D01*
X190560000Y-85320000D02*
X190560000Y-88710000D01*
X194790000Y-54110000D02*
X205100000Y-54110000D01*
X167630000Y-99040000D02*
X192400000Y-99040000D01*
X165090000Y-99040000D02*
X167630000Y-99040000D01*
X196220000Y-96540000D02*
X193720000Y-99040000D01*
X206360000Y-52850000D02*
X207680000Y-52850000D01*
X193530000Y-52850000D02*
X194790000Y-54110000D01*
X190560000Y-88710000D02*
X196220000Y-94370000D01*
X205100000Y-54110000D02*
X206360000Y-52850000D01*
X192430000Y-103130000D02*
X192430000Y-99070000D01*
%TO.N,/A15*%
X165090000Y-101580000D02*
X167630000Y-101580000D01*
X191170000Y-101580000D02*
X191490000Y-101260000D01*
X189710000Y-84480000D02*
X189710000Y-90250000D01*
X193340000Y-101290000D02*
X197510000Y-97120000D01*
X189710000Y-90250000D02*
X194970000Y-95510000D01*
X189720000Y-84470000D02*
X189710000Y-84480000D01*
X167630000Y-101580000D02*
X191170000Y-101580000D01*
X197510000Y-97120000D02*
X197510000Y-95510000D01*
%TO.N,/D7*%
X201150000Y-75710000D02*
X204550000Y-75710000D01*
X224410000Y-74220000D02*
X224410000Y-61110000D01*
X224410000Y-61110000D02*
X229530000Y-55990000D01*
X223780000Y-107700000D02*
X213800000Y-107700000D01*
X204550000Y-75710000D02*
X205830000Y-74430000D01*
X209435000Y-74430000D02*
X210715000Y-75710000D01*
X210715000Y-75710000D02*
X222920000Y-75710000D01*
X222920000Y-75710000D02*
X224410000Y-74220000D01*
X226105000Y-105375000D02*
X223780000Y-107700000D01*
X205830000Y-74430000D02*
X209435000Y-74430000D01*
%TO.N,/D6*%
X210685000Y-78250000D02*
X222920000Y-78250000D01*
X225170000Y-108850000D02*
X214850000Y-108850000D01*
X226105000Y-107915000D02*
X225170000Y-108850000D01*
X204480000Y-78250000D02*
X205750000Y-76980000D01*
X209415000Y-76980000D02*
X210685000Y-78250000D01*
X205750000Y-76980000D02*
X209415000Y-76980000D01*
X201150000Y-78250000D02*
X204480000Y-78250000D01*
X225110000Y-62950000D02*
X225110000Y-76060000D01*
X225110000Y-76060000D02*
X222920000Y-78250000D01*
X229530000Y-58530000D02*
X225110000Y-62950000D01*
X201140000Y-78260000D02*
X201150000Y-78250000D01*
%TO.N,/D5*%
X209455000Y-79510000D02*
X210735000Y-80790000D01*
X225810000Y-77900000D02*
X225810000Y-64790000D01*
X210735000Y-80790000D02*
X222920000Y-80790000D01*
X205910000Y-79510000D02*
X209455000Y-79510000D01*
X201150000Y-80790000D02*
X204630000Y-80790000D01*
X226105000Y-110455000D02*
X225450000Y-109800000D01*
X204630000Y-80790000D02*
X205910000Y-79510000D01*
X225450000Y-109800000D02*
X215850000Y-109800000D01*
X222920000Y-80790000D02*
X225810000Y-77900000D01*
X225810000Y-64790000D02*
X229530000Y-61070000D01*
%TO.N,/D4*%
X210050000Y-83330000D02*
X222920000Y-83330000D01*
X205040000Y-83330000D02*
X206290000Y-82080000D01*
X201150000Y-83330000D02*
X205040000Y-83330000D01*
X226510000Y-66630000D02*
X226510000Y-79740000D01*
X223760000Y-110650000D02*
X216890500Y-110650000D01*
X226510000Y-79740000D02*
X222920000Y-83330000D01*
X206290000Y-82080000D02*
X208800000Y-82080000D01*
X229530000Y-63610000D02*
X226510000Y-66630000D01*
X208800000Y-82080000D02*
X210050000Y-83330000D01*
X226105000Y-112995000D02*
X223760000Y-110650000D01*
%TO.N,/D3*%
X222275000Y-111705000D02*
X226105000Y-115535000D01*
X210150000Y-85870000D02*
X222920000Y-85870000D01*
X205520000Y-85870000D02*
X206800000Y-84590000D01*
X222920000Y-85870000D02*
X227210000Y-81580000D01*
X207500000Y-120700000D02*
X207500000Y-115550000D01*
X209600000Y-113450000D02*
X209600000Y-112499346D01*
X206800000Y-84590000D02*
X208870000Y-84590000D01*
X207150000Y-121050000D02*
X207500000Y-120700000D01*
X227210000Y-81580000D02*
X227210000Y-68470000D01*
X208870000Y-84590000D02*
X210150000Y-85870000D01*
X227210000Y-68470000D02*
X229530000Y-66150000D01*
X209600000Y-112499346D02*
X210394346Y-111705000D01*
X201150000Y-85870000D02*
X205520000Y-85870000D01*
X210394346Y-111705000D02*
X222275000Y-111705000D01*
X207500000Y-115550000D02*
X209600000Y-113450000D01*
%TO.N,/D2*%
X207700497Y-121749503D02*
X208200000Y-121250000D01*
X219470000Y-84630000D02*
X210110000Y-84630000D01*
X230510000Y-94600000D02*
X232370000Y-92740000D01*
X193530000Y-83330000D02*
X195050000Y-83330000D01*
X210110000Y-84630000D02*
X208810000Y-83330000D01*
X208200000Y-121250000D02*
X208200000Y-116439346D01*
X196320000Y-84600000D02*
X205280000Y-84600000D01*
X208810000Y-83330000D02*
X207680000Y-83330000D01*
X219550000Y-114250000D02*
X222280000Y-114250000D01*
X232370000Y-71530000D02*
X229530000Y-68690000D01*
X208200000Y-116439346D02*
X210389346Y-114250000D01*
X223540000Y-115510000D02*
X226105000Y-118075000D01*
X210389346Y-114250000D02*
X222280000Y-114250000D01*
X219470000Y-94600000D02*
X230510000Y-94600000D01*
X207150000Y-121749503D02*
X207700497Y-121749503D01*
X195050000Y-83330000D02*
X196320000Y-84600000D01*
X206550000Y-83330000D02*
X207680000Y-83330000D01*
X205280000Y-84600000D02*
X206550000Y-83330000D01*
X232370000Y-92740000D02*
X232370000Y-71530000D01*
X223540000Y-115510000D02*
X222280000Y-114250000D01*
%TO.N,/D1*%
X231670000Y-73370000D02*
X229530000Y-71230000D01*
X230270000Y-93730000D02*
X231670000Y-92330000D01*
X207990944Y-122449006D02*
X208900000Y-121539950D01*
X207150000Y-122449006D02*
X207990944Y-122449006D01*
X220400000Y-116800000D02*
X220200000Y-116800000D01*
X207680000Y-80790000D02*
X206080000Y-80790000D01*
X208900000Y-121539950D02*
X208900000Y-117450000D01*
X220200000Y-116800000D02*
X222290000Y-116800000D01*
X209550000Y-116800000D02*
X220200000Y-116800000D01*
X196340000Y-82070000D02*
X195060000Y-80790000D01*
X231670000Y-92330000D02*
X231670000Y-73370000D01*
X209120000Y-80790000D02*
X210070000Y-81740000D01*
X195060000Y-80790000D02*
X193530000Y-80790000D01*
X208900000Y-117450000D02*
X209550000Y-116800000D01*
X206080000Y-80790000D02*
X204800000Y-82070000D01*
X204800000Y-82070000D02*
X196340000Y-82070000D01*
X222290000Y-116800000D02*
X226105000Y-120615000D01*
X207680000Y-80790000D02*
X209120000Y-80790000D01*
X220400000Y-93730000D02*
X230270000Y-93730000D01*
X210450000Y-82120000D02*
X220320000Y-82120000D01*
X210070000Y-81740000D02*
X210450000Y-82120000D01*
%TO.N,/D0*%
X196240000Y-79510000D02*
X194980000Y-78250000D01*
X221230000Y-92870000D02*
X221180000Y-92820000D01*
X225220000Y-92870000D02*
X221230000Y-92870000D01*
X210369346Y-119350000D02*
X221300000Y-119350000D01*
X230970000Y-91990000D02*
X230090000Y-92870000D01*
X230090000Y-92870000D02*
X225220000Y-92870000D01*
X230970000Y-84080000D02*
X230970000Y-91990000D01*
X194980000Y-78250000D02*
X193530000Y-78250000D01*
X209430000Y-78250000D02*
X207680000Y-78250000D01*
X230970000Y-75210000D02*
X230970000Y-84080000D01*
X205740000Y-78250000D02*
X204480000Y-79510000D01*
X222300000Y-119350000D02*
X226105000Y-123155000D01*
X209615000Y-121814899D02*
X209615000Y-120104346D01*
X207680000Y-78250000D02*
X205740000Y-78250000D01*
X210710000Y-79530000D02*
X209430000Y-78250000D01*
X208281390Y-123148509D02*
X209615000Y-121814899D01*
X204480000Y-79510000D02*
X196240000Y-79510000D01*
X221300000Y-119350000D02*
X222300000Y-119350000D01*
X221190000Y-79530000D02*
X210710000Y-79530000D01*
X209615000Y-120104346D02*
X210369346Y-119350000D01*
X229530000Y-73770000D02*
X230970000Y-75210000D01*
X207150000Y-123148509D02*
X208281390Y-123148509D01*
%TO.N,R{slash}~{W}*%
X226800000Y-97060000D02*
X226105000Y-97755000D01*
X223690000Y-54130000D02*
X224810000Y-53010000D01*
X156340000Y-62310000D02*
X156340000Y-65100000D01*
X187320000Y-50370000D02*
X187320000Y-45070000D01*
X191350000Y-54400000D02*
X187320000Y-50370000D01*
X201150000Y-55390000D02*
X205190000Y-55390000D01*
X234580000Y-69750000D02*
X234580000Y-94000000D01*
X232290000Y-48590000D02*
X232290000Y-67460000D01*
X186690000Y-44440000D02*
X174410000Y-44440000D01*
X171870000Y-46980000D02*
X170200000Y-46980000D01*
X174410000Y-44440000D02*
X171870000Y-46980000D01*
X232290000Y-67460000D02*
X234580000Y-69750000D01*
X234580000Y-94000000D02*
X231520000Y-97060000D01*
X224810000Y-50550000D02*
X229530000Y-45830000D01*
X231520000Y-97060000D02*
X226800000Y-97060000D01*
X159950000Y-57230000D02*
X159950000Y-58700000D01*
X159950000Y-58700000D02*
X156340000Y-62310000D01*
X170200000Y-46980000D02*
X159950000Y-57230000D01*
X187320000Y-45070000D02*
X186690000Y-44440000D01*
X224810000Y-53010000D02*
X224810000Y-50550000D01*
X229530000Y-45830000D02*
X232290000Y-48590000D01*
X206450000Y-54130000D02*
X223690000Y-54130000D01*
X205190000Y-55390000D02*
X206450000Y-54130000D01*
D33*
%TO.N,CLK*%
X161800000Y-63150000D02*
X161800000Y-63050000D01*
D32*
X230960000Y-95490000D02*
X227520000Y-95490000D01*
X210200000Y-106650000D02*
X222700000Y-106650000D01*
X230890000Y-54810000D02*
X230890000Y-68220000D01*
X195980000Y-48340000D02*
X197250000Y-49610000D01*
X209290000Y-102440000D02*
X209290000Y-105740000D01*
D33*
X153800000Y-75260000D02*
X155090000Y-76550000D01*
D32*
X205130000Y-98280000D02*
X209290000Y-102440000D01*
X205130000Y-95510000D02*
X205130000Y-98280000D01*
D33*
X160650000Y-76550000D02*
X161800000Y-75400000D01*
X167750000Y-57100000D02*
X179300000Y-57100000D01*
X155090000Y-76550000D02*
X160650000Y-76550000D01*
D32*
X233070000Y-70400000D02*
X233070000Y-93380000D01*
X230890000Y-68220000D02*
X233070000Y-70400000D01*
X209290000Y-105740000D02*
X210200000Y-106650000D01*
D33*
X179300000Y-57100000D02*
X185630000Y-50770000D01*
D32*
X224250000Y-105100000D02*
X224250000Y-102150000D01*
X197250000Y-49610000D02*
X223170000Y-49610000D01*
X233070000Y-93380000D02*
X230960000Y-95490000D01*
D33*
X161800000Y-75400000D02*
X161800000Y-63150000D01*
X161800000Y-63050000D02*
X167750000Y-57100000D01*
D32*
X222700000Y-106650000D02*
X224250000Y-105100000D01*
X229530000Y-53450000D02*
X230890000Y-54810000D01*
X223170000Y-49610000D02*
X223900000Y-50340000D01*
X224250000Y-102150000D02*
X226105000Y-100295000D01*
D33*
X185630000Y-50770000D02*
X186070000Y-50770000D01*
D32*
%TO.N,Net-(U2-~{CS})*%
X200050000Y-98050000D02*
X194970000Y-103130000D01*
X206560000Y-91540000D02*
X202590000Y-95510000D01*
X200050000Y-95510000D02*
X200050000Y-98050000D01*
X216730000Y-91540000D02*
X206560000Y-91540000D01*
%TO.N,Net-(U6-T1OUT)*%
X241210000Y-115580000D02*
X238710000Y-118080000D01*
X243250000Y-106825000D02*
X241210000Y-108865000D01*
X241210000Y-108865000D02*
X241210000Y-115580000D01*
X243250000Y-106945331D02*
X243250000Y-106825000D01*
%TO.N,Net-(U6-R1IN)*%
X241960000Y-110885000D02*
X241960000Y-117370000D01*
X241960000Y-117370000D02*
X238710000Y-120620000D01*
X238710000Y-120620000D02*
X238819669Y-120620000D01*
X243250000Y-109595000D02*
X241960000Y-110885000D01*
%TO.N,PHER*%
X210880000Y-102820000D02*
X210865000Y-102835000D01*
X229530000Y-48370000D02*
X231590000Y-50430000D01*
X233800000Y-93639950D02*
X231239950Y-96200000D01*
X233800000Y-70050000D02*
X233800000Y-93639950D01*
X231239950Y-96200000D02*
X216430000Y-96200000D01*
X231590000Y-67840000D02*
X233800000Y-70050000D01*
X216430000Y-96200000D02*
X216070000Y-96560000D01*
X216050000Y-102820000D02*
X210880000Y-102820000D01*
X231590000Y-50430000D02*
X231590000Y-67840000D01*
%TO.N,RESET*%
X196020000Y-50450000D02*
X222830000Y-50450000D01*
X224590000Y-90290000D02*
X227940000Y-86940000D01*
X227940000Y-77900000D02*
X229530000Y-76310000D01*
X161200000Y-34760000D02*
X158350000Y-37610000D01*
X158350000Y-37610000D02*
X158350000Y-58200000D01*
X216860000Y-92770000D02*
X219340000Y-90290000D01*
X216855000Y-105375000D02*
X210865000Y-105375000D01*
X188720000Y-43150000D02*
X196020000Y-50450000D01*
X216860000Y-94380000D02*
X216860000Y-92770000D01*
X227940000Y-86940000D02*
X227940000Y-77900000D01*
X219340000Y-90290000D02*
X224590000Y-90290000D01*
X158350000Y-58200000D02*
X153800000Y-62750000D01*
X210865000Y-105375000D02*
X210865000Y-105365000D01*
X216860000Y-105380000D02*
X216855000Y-105375000D01*
X222830000Y-50450000D02*
X223960000Y-51580000D01*
X153800000Y-62750000D02*
X153800000Y-65100000D01*
X186070000Y-43150000D02*
X188720000Y-43150000D01*
D33*
%TO.N,Net-(U1-RDY)*%
X170230000Y-45690000D02*
X159150000Y-56770000D01*
X159150000Y-56770000D02*
X159150000Y-58450000D01*
X170830000Y-45690000D02*
X170230000Y-45690000D01*
X155050000Y-66390000D02*
X153800000Y-67640000D01*
X155050000Y-62550000D02*
X155050000Y-66390000D01*
X159150000Y-58450000D02*
X155050000Y-62550000D01*
D32*
%TO.N,GND*%
X205000000Y-68090000D02*
X206270000Y-66820000D01*
X197310000Y-46640000D02*
X193580000Y-46640000D01*
X198480000Y-47810000D02*
X197310000Y-46640000D01*
X206360000Y-87170000D02*
X207660000Y-85870000D01*
X191400000Y-83610000D02*
X189360000Y-83610000D01*
X207660000Y-85870000D02*
X207680000Y-85870000D01*
X208620000Y-66820000D02*
X209890000Y-68090000D01*
X201150000Y-68090000D02*
X205000000Y-68090000D01*
X206270000Y-66820000D02*
X208620000Y-66820000D01*
X189360000Y-83610000D02*
X187750000Y-85220000D01*
X193580000Y-46640000D02*
X193340000Y-46640000D01*
X193530000Y-85870000D02*
X193530000Y-85740000D01*
X193530000Y-85870000D02*
X198920000Y-85870000D01*
X209890000Y-68090000D02*
X222920000Y-68090000D01*
X198920000Y-85870000D02*
X200220000Y-87170000D01*
X193530000Y-85740000D02*
X191400000Y-83610000D01*
X200220000Y-87170000D02*
X206360000Y-87170000D01*
X193340000Y-46640000D02*
X191110000Y-44410000D01*
X187750000Y-85220000D02*
X187750000Y-89730000D01*
X187750000Y-89730000D02*
X186070000Y-91410000D01*
%TO.N,Net-(U6-T1IN)*%
X237435000Y-124425000D02*
X238710000Y-125700000D01*
X210865000Y-120615000D02*
X221105000Y-120615000D01*
X221105000Y-120615000D02*
X224915000Y-124425000D01*
X224915000Y-124425000D02*
X237435000Y-124425000D01*
%TO.N,Net-(U6-R1OUT)*%
X224925000Y-126965000D02*
X239685000Y-126965000D01*
X239685000Y-126965000D02*
X240360000Y-126290000D01*
X240360000Y-126290000D02*
X240360000Y-124810000D01*
X240360000Y-124810000D02*
X238710000Y-123160000D01*
X223655000Y-125695000D02*
X224925000Y-126965000D01*
X210865000Y-125695000D02*
X223655000Y-125695000D01*
%TO.N,IRQ*%
X233150000Y-67300000D02*
X233150000Y-41012500D01*
X224150000Y-48690000D02*
X228260000Y-44580000D01*
X235330000Y-94400000D02*
X235330000Y-69480000D01*
D33*
X158750000Y-61700000D02*
X169680000Y-50770000D01*
D32*
X233150000Y-41012500D02*
X234332500Y-39830000D01*
D33*
X156340000Y-70180000D02*
X158750000Y-67770000D01*
X169680000Y-50770000D02*
X170830000Y-50770000D01*
X158750000Y-67770000D02*
X158750000Y-61700000D01*
D32*
X229180000Y-107632500D02*
X229180000Y-100550000D01*
X229180000Y-100550000D02*
X235330000Y-94400000D01*
X193680000Y-45790000D02*
X198660000Y-45790000D01*
X193670000Y-45800000D02*
X193680000Y-45790000D01*
X235330000Y-69480000D02*
X233150000Y-67300000D01*
X201560000Y-48690000D02*
X224150000Y-48690000D01*
X198660000Y-45790000D02*
X201560000Y-48690000D01*
D33*
%TO.N,unconnected-(U1-PHI1out-Pad3)*%
X170830000Y-48770000D02*
X158150000Y-61450000D01*
X170830000Y-48230000D02*
X170830000Y-48770000D01*
X158150000Y-65830000D02*
X156340000Y-67640000D01*
X158150000Y-61450000D02*
X158150000Y-65830000D01*
%TO.N,unconnected-(U1-~{ML}-Pad5)*%
X169950000Y-53310000D02*
X170830000Y-53310000D01*
X156340000Y-72720000D02*
X158730000Y-72720000D01*
X168840000Y-53310000D02*
X169950000Y-53310000D01*
X158730000Y-72720000D02*
X159950000Y-71500000D01*
X159950000Y-71500000D02*
X159950000Y-62200000D01*
X159950000Y-62200000D02*
X168840000Y-53310000D01*
%TO.N,unconnected-(U1-SYNC-Pad7)*%
X162400000Y-76300000D02*
X160900000Y-77800000D01*
X167900000Y-58390000D02*
X170830000Y-58390000D01*
X160900000Y-77800000D02*
X156340000Y-77800000D01*
X162400000Y-63350000D02*
X167360000Y-58390000D01*
X167360000Y-58390000D02*
X167900000Y-58390000D01*
X162400000Y-63600000D02*
X162400000Y-76300000D01*
X162400000Y-63300000D02*
X162400000Y-63600000D01*
X162400000Y-63600000D02*
X162400000Y-63350000D01*
%TO.N,unconnected-(U1-~{SO}-Pad38)*%
X186070000Y-48230000D02*
X179700000Y-54600000D01*
X166425736Y-56625736D02*
X166201472Y-56850000D01*
X160600000Y-73050000D02*
X159650000Y-74000000D01*
X160600000Y-63050000D02*
X160600000Y-73050000D01*
X168451472Y-54600000D02*
X166425736Y-56625736D01*
X160600000Y-62451472D02*
X160600000Y-63050000D01*
X166201472Y-56850000D02*
X166198528Y-56847056D01*
X166425736Y-56625736D02*
X160600000Y-62451472D01*
X179700000Y-54600000D02*
X168451472Y-54600000D01*
X159650000Y-74000000D02*
X155080000Y-74000000D01*
X155080000Y-74000000D02*
X153800000Y-72720000D01*
%TO.N,unconnected-(U1-PHI2out-Pad39)*%
X159350000Y-61950000D02*
X159350000Y-70500000D01*
X169240000Y-52060000D02*
X159350000Y-61950000D01*
X179700000Y-52060000D02*
X169240000Y-52060000D01*
X158400000Y-71450000D02*
X155070000Y-71450000D01*
X186070000Y-45690000D02*
X179700000Y-52060000D01*
X159350000Y-70500000D02*
X158400000Y-71450000D01*
X155070000Y-71450000D02*
X153800000Y-70180000D01*
%TO.N,unconnected-(U5-PA0-Pad2)*%
X226600000Y-35900000D02*
X226600000Y-35850000D01*
X236029500Y-69229500D02*
X233800000Y-67000000D01*
X236029500Y-78269500D02*
X236029500Y-69229500D01*
X229850000Y-39150000D02*
X226600000Y-35900000D01*
X235310869Y-39889131D02*
X234571738Y-39150000D01*
X233800000Y-41400000D02*
X235310869Y-39889131D01*
X234571738Y-39150000D02*
X229850000Y-39150000D01*
X233800000Y-67000000D02*
X233800000Y-41400000D01*
%TO.N,unconnected-(U5-PA1-Pad3)*%
X236629500Y-68980972D02*
X234400000Y-66751472D01*
X231850000Y-38550000D02*
X229150000Y-35850000D01*
X236160133Y-39889867D02*
X234820266Y-38550000D01*
X236728280Y-78049041D02*
X236629500Y-77950261D01*
X236629500Y-77950261D02*
X236629500Y-68980972D01*
X236728280Y-78301286D02*
X236728280Y-78049041D01*
X234820266Y-38550000D02*
X231850000Y-38550000D01*
X234400000Y-41650000D02*
X236160133Y-39889867D01*
X234400000Y-66751472D02*
X234400000Y-41650000D01*
X229150000Y-35850000D02*
X229140000Y-35850000D01*
%TO.N,unconnected-(U5-PA2-Pad4)*%
X235068794Y-37950000D02*
X233800000Y-37950000D01*
X237229500Y-68732444D02*
X235000000Y-66502944D01*
X237427781Y-77900014D02*
X237229500Y-77701733D01*
X231700000Y-35850000D02*
X231680000Y-35850000D01*
X235000000Y-41898528D02*
X236760133Y-40138395D01*
X235000000Y-66502944D02*
X235000000Y-41898528D01*
X233800000Y-37950000D02*
X231700000Y-35850000D01*
X236760133Y-40138395D02*
X236760133Y-39641339D01*
X237427781Y-78299901D02*
X237427781Y-77900014D01*
X236760133Y-39641339D02*
X235068794Y-37950000D01*
X237229500Y-77701733D02*
X237229500Y-68732444D01*
%TO.N,unconnected-(U5-PA3-Pad5)*%
X235600000Y-42147056D02*
X237360133Y-40386923D01*
X237829500Y-77453205D02*
X237829500Y-68429500D01*
X237360133Y-39392811D02*
X234220000Y-36252678D01*
X237360133Y-40386923D02*
X237360133Y-39392811D01*
X238127283Y-78300004D02*
X238127283Y-77750988D01*
X235650000Y-62500000D02*
X235600000Y-62450000D01*
X234220000Y-36252678D02*
X234220000Y-35850000D01*
X238127283Y-77750988D02*
X237829500Y-77453205D01*
X237829500Y-68429500D02*
X235650000Y-66250000D01*
X235650000Y-66250000D02*
X235650000Y-62500000D01*
X235600000Y-62450000D02*
X235600000Y-42147056D01*
%TO.N,unconnected-(U5-PA4-Pad6)*%
X237960133Y-39110133D02*
X236760000Y-37910000D01*
X236760000Y-37910000D02*
X236760000Y-35850000D01*
X238429500Y-77204677D02*
X238429500Y-68150000D01*
X238429500Y-68150000D02*
X236250000Y-65970500D01*
X236250000Y-65970500D02*
X236250000Y-42345584D01*
X238826785Y-78300000D02*
X238826785Y-77601962D01*
X236250000Y-42345584D02*
X237960133Y-40635451D01*
X238826785Y-77601962D02*
X238429500Y-77204677D01*
X237960133Y-40635451D02*
X237960133Y-39110133D01*
%TO.N,unconnected-(U5-PA5-Pad7)*%
X239300000Y-38350000D02*
X239300000Y-35850000D01*
X236850000Y-65700000D02*
X236850000Y-42679500D01*
X239029500Y-76200000D02*
X239029500Y-67879500D01*
X238560133Y-39089867D02*
X239300000Y-38350000D01*
X239029500Y-67879500D02*
X236850000Y-65700000D01*
X238560133Y-40969367D02*
X238560133Y-39089867D01*
X236850000Y-42679500D02*
X238560133Y-40969367D01*
%TO.N,unconnected-(U5-PA6-Pad8)*%
X239629500Y-73800000D02*
X239629500Y-67630972D01*
X237500000Y-42878028D02*
X239160133Y-41217895D01*
X239160133Y-41217895D02*
X239160133Y-39339867D01*
X241840000Y-36660000D02*
X241840000Y-35850000D01*
X239160133Y-39339867D02*
X241840000Y-36660000D01*
X239629500Y-67630972D02*
X237500000Y-65501472D01*
X237500000Y-65501472D02*
X237500000Y-42878028D01*
%TO.N,unconnected-(U5-PA7-Pad9)*%
X240229500Y-70429500D02*
X240229500Y-67382444D01*
X239760133Y-39689867D02*
X240750000Y-38700000D01*
X238100000Y-65252944D02*
X238100000Y-43126556D01*
X240750000Y-38700000D02*
X241530000Y-38700000D01*
X239760133Y-41466423D02*
X239760133Y-39689867D01*
X240229500Y-67382444D02*
X238100000Y-65252944D01*
X238100000Y-43126556D02*
X239760133Y-41466423D01*
X241530000Y-38700000D02*
X244380000Y-35850000D01*
X240250000Y-70450000D02*
X240229500Y-70429500D01*
%TO.N,unconnected-(U5-PB7-Pad17)*%
X240150000Y-49511371D02*
X240150000Y-43750000D01*
X244770000Y-50910000D02*
X241548629Y-50910000D01*
X241548629Y-50910000D02*
X240150000Y-49511371D01*
%TO.N,unconnected-(U5-CB1-Pad18)*%
X244770000Y-48370000D02*
X242478629Y-48370000D01*
X242478629Y-48370000D02*
X240850000Y-46741371D01*
X240850000Y-46741371D02*
X240850000Y-43800000D01*
%TO.N,unconnected-(U5-CB2-Pad19)*%
X243438629Y-45830000D02*
X241580378Y-43971749D01*
X241580378Y-43971749D02*
X241580378Y-43630378D01*
X244770000Y-45830000D02*
X243438629Y-45830000D01*
%TO.N,unconnected-(U5-CA2-Pad39)*%
X238750000Y-44650000D02*
X238750000Y-43550000D01*
X240478028Y-66782444D02*
X238750000Y-65054416D01*
X240900000Y-67204416D02*
X240478028Y-66782444D01*
X238750000Y-61300000D02*
X238750000Y-44650000D01*
X237450000Y-83050000D02*
X240900000Y-79600000D01*
X238750000Y-65054416D02*
X238750000Y-61300000D01*
X240900000Y-79600000D02*
X240900000Y-67204416D01*
%TO.N,unconnected-(U5-CA1-Pad40)*%
X238000000Y-83550000D02*
X241500000Y-80050000D01*
X241500000Y-66955888D02*
X239350000Y-64805888D01*
X239350000Y-64805888D02*
X239350000Y-43800000D01*
X239350000Y-43800000D02*
X239450000Y-43700000D01*
X241500000Y-80050000D02*
X241500000Y-66955888D01*
%TD*%
M02*
