%TF.GenerationSoftware,KiCad,Pcbnew,7.0.9*%
%TF.CreationDate,2024-02-07T01:21:47+02:00*%
%TF.ProjectId,W65C02Computer,57363543-3032-4436-9f6d-70757465722e,rev?*%
%TF.SameCoordinates,Original*%
%TF.FileFunction,Soldermask,Bot*%
%TF.FilePolarity,Negative*%
%FSLAX46Y46*%
G04 Gerber Fmt 4.6, Leading zero omitted, Abs format (unit mm)*
G04 Created by KiCad (PCBNEW 7.0.9) date 2024-02-07 01:21:47*
%MOMM*%
%LPD*%
G01*
G04 APERTURE LIST*
%ADD10R,2.400000X1.600000*%
%ADD11O,2.400000X1.600000*%
%ADD12C,2.300000*%
%ADD13O,2.200000X3.500000*%
%ADD14R,1.500000X2.500000*%
%ADD15O,1.500000X2.500000*%
%ADD16R,1.700000X1.700000*%
%ADD17O,1.700000X1.700000*%
%ADD18R,1.600000X1.600000*%
%ADD19O,1.600000X1.600000*%
%ADD20R,2.000000X1.440000*%
%ADD21O,2.000000X1.440000*%
%ADD22R,1.560000X1.560000*%
%ADD23C,1.560000*%
%ADD24C,4.000000*%
%ADD25C,1.600000*%
%ADD26C,2.000000*%
%ADD27R,1.600000X2.400000*%
%ADD28O,1.600000X2.400000*%
G04 APERTURE END LIST*
D10*
%TO.C,U6*%
X231090000Y-113000000D03*
D11*
X231090000Y-115540000D03*
X231090000Y-118080000D03*
X231090000Y-120620000D03*
X231090000Y-123160000D03*
X231090000Y-125700000D03*
X231090000Y-128240000D03*
X231090000Y-130780000D03*
X238710000Y-130780000D03*
X238710000Y-128240000D03*
X238710000Y-125700000D03*
X238710000Y-123160000D03*
X238710000Y-120620000D03*
X238710000Y-118080000D03*
X238710000Y-115540000D03*
X238710000Y-113000000D03*
%TD*%
D12*
%TO.C,Y1*%
X206310000Y-109180000D03*
X206310000Y-114080000D03*
%TD*%
D13*
%TO.C,SW2*%
X179990000Y-33530000D03*
X171790000Y-33530000D03*
D14*
X177890000Y-33530000D03*
D15*
X175890000Y-33530000D03*
X173890000Y-33530000D03*
%TD*%
D16*
%TO.C,REF\u002A\u002A*%
X153800000Y-65100000D03*
D17*
X156340000Y-65100000D03*
X153800000Y-67640000D03*
X156340000Y-67640000D03*
X153800000Y-70180000D03*
X156340000Y-70180000D03*
X153800000Y-72720000D03*
X156340000Y-72720000D03*
X153800000Y-75260000D03*
X156340000Y-75260000D03*
X153800000Y-77800000D03*
X156340000Y-77800000D03*
%TD*%
D18*
%TO.C,U7*%
X210865000Y-97755000D03*
D19*
X210865000Y-100295000D03*
X210865000Y-102835000D03*
X210865000Y-105375000D03*
X210865000Y-107915000D03*
X210865000Y-110455000D03*
X210865000Y-112995000D03*
X210865000Y-115535000D03*
X210865000Y-118075000D03*
X210865000Y-120615000D03*
X210865000Y-123155000D03*
X210865000Y-125695000D03*
X210865000Y-128235000D03*
X210865000Y-130775000D03*
X226105000Y-130775000D03*
X226105000Y-128235000D03*
X226105000Y-125695000D03*
X226105000Y-123155000D03*
X226105000Y-120615000D03*
X226105000Y-118075000D03*
X226105000Y-115535000D03*
X226105000Y-112995000D03*
X226105000Y-110455000D03*
X226105000Y-107915000D03*
X226105000Y-105375000D03*
X226105000Y-102835000D03*
X226105000Y-100295000D03*
X226105000Y-97755000D03*
%TD*%
D20*
%TO.C,U2*%
X207680000Y-52850000D03*
D21*
X207680000Y-55390000D03*
X207680000Y-57930000D03*
X207680000Y-60470000D03*
X207680000Y-63010000D03*
X207680000Y-65550000D03*
X207680000Y-68090000D03*
X207680000Y-70630000D03*
X207680000Y-73170000D03*
X207680000Y-75710000D03*
X207680000Y-78250000D03*
X207680000Y-80790000D03*
X207680000Y-83330000D03*
X207680000Y-85870000D03*
X222920000Y-85870000D03*
X222920000Y-83330000D03*
X222920000Y-80790000D03*
X222920000Y-78250000D03*
X222920000Y-75710000D03*
X222920000Y-73170000D03*
X222920000Y-70630000D03*
X222920000Y-68090000D03*
X222920000Y-65550000D03*
X222920000Y-63010000D03*
X222920000Y-60470000D03*
X222920000Y-57930000D03*
X222920000Y-55390000D03*
X222920000Y-52850000D03*
%TD*%
D16*
%TO.C,REF\u002A\u002A*%
X156340000Y-83770000D03*
D17*
X156340000Y-86310000D03*
X156340000Y-88850000D03*
X156340000Y-91390000D03*
X156340000Y-93930000D03*
X156340000Y-96470000D03*
X156340000Y-99010000D03*
X156340000Y-101550000D03*
%TD*%
D18*
%TO.C,U1*%
X170830000Y-43150000D03*
D19*
X170830000Y-45690000D03*
X170830000Y-48230000D03*
X170830000Y-50770000D03*
X170830000Y-53310000D03*
X170830000Y-55850000D03*
X170830000Y-58390000D03*
X170830000Y-60930000D03*
X170830000Y-63470000D03*
X170830000Y-66010000D03*
X170830000Y-68550000D03*
X170830000Y-71090000D03*
X170830000Y-73630000D03*
X170830000Y-76170000D03*
X170830000Y-78710000D03*
X170830000Y-81250000D03*
X170830000Y-83790000D03*
X170830000Y-86330000D03*
X170830000Y-88870000D03*
X170830000Y-91410000D03*
X186070000Y-91410000D03*
X186070000Y-88870000D03*
X186070000Y-86330000D03*
X186070000Y-83790000D03*
X186070000Y-81250000D03*
X186070000Y-78710000D03*
X186070000Y-76170000D03*
X186070000Y-73630000D03*
X186070000Y-71090000D03*
X186070000Y-68550000D03*
X186070000Y-66010000D03*
X186070000Y-63470000D03*
X186070000Y-60930000D03*
X186070000Y-58390000D03*
X186070000Y-55850000D03*
X186070000Y-53310000D03*
X186070000Y-50770000D03*
X186070000Y-48230000D03*
X186070000Y-45690000D03*
X186070000Y-43150000D03*
%TD*%
D22*
%TO.C,RV1*%
X252330000Y-91235000D03*
D23*
X249830000Y-86235000D03*
X247330000Y-91235000D03*
%TD*%
D16*
%TO.C,DS1*%
X250870000Y-78860000D03*
D17*
X250870000Y-76320000D03*
X250870000Y-73780000D03*
X250870000Y-71240000D03*
X250870000Y-68700000D03*
X250870000Y-66160000D03*
X250870000Y-63620000D03*
X250870000Y-61080000D03*
X250870000Y-58540000D03*
X250870000Y-56000000D03*
X250870000Y-53460000D03*
X250870000Y-50920000D03*
X250870000Y-48380000D03*
X250870000Y-45840000D03*
X250870000Y-43300000D03*
X250870000Y-40760000D03*
%TD*%
D16*
%TO.C,REF\u002A\u002A*%
X165090000Y-101580000D03*
D17*
X165090000Y-99040000D03*
X165090000Y-96500000D03*
X165090000Y-93960000D03*
X165090000Y-91420000D03*
X165090000Y-88880000D03*
X165090000Y-86340000D03*
X165090000Y-83800000D03*
X165090000Y-81260000D03*
X165090000Y-78720000D03*
X165090000Y-76180000D03*
X165090000Y-73640000D03*
X165090000Y-71100000D03*
X165090000Y-68560000D03*
X165090000Y-66020000D03*
X165090000Y-63480000D03*
%TD*%
D16*
%TO.C,REF\u002A\u002A*%
X226600000Y-33310000D03*
D17*
X229140000Y-33310000D03*
X231680000Y-33310000D03*
X234220000Y-33310000D03*
X236760000Y-33310000D03*
X239300000Y-33310000D03*
X241840000Y-33310000D03*
X244380000Y-33310000D03*
%TD*%
D24*
%TO.C,J1*%
X244670000Y-122095000D03*
X244670000Y-97095000D03*
D18*
X243250000Y-104055000D03*
D25*
X243250000Y-106825000D03*
X243250000Y-109595000D03*
X243250000Y-112365000D03*
X243250000Y-115135000D03*
X246090000Y-105440000D03*
X246090000Y-108210000D03*
X246090000Y-110980000D03*
X246090000Y-113750000D03*
%TD*%
D16*
%TO.C,J3*%
X167630000Y-101580000D03*
D17*
X167630000Y-99040000D03*
X167630000Y-96500000D03*
X167630000Y-93960000D03*
X167630000Y-91420000D03*
X167630000Y-88880000D03*
X167630000Y-86340000D03*
X167630000Y-83800000D03*
X167630000Y-81260000D03*
X167630000Y-78720000D03*
X167630000Y-76180000D03*
X167630000Y-73640000D03*
X167630000Y-71100000D03*
X167630000Y-68560000D03*
X167630000Y-66020000D03*
X167630000Y-63480000D03*
%TD*%
D16*
%TO.C,REF\u002A\u002A*%
X153800000Y-83770000D03*
D17*
X153800000Y-86310000D03*
X153800000Y-88850000D03*
X153800000Y-91390000D03*
X153800000Y-93930000D03*
X153800000Y-96470000D03*
X153800000Y-99010000D03*
X153800000Y-101550000D03*
%TD*%
D26*
%TO.C,SW1*%
X167700000Y-39260000D03*
X161200000Y-39260000D03*
X167700000Y-34760000D03*
X161200000Y-34760000D03*
%TD*%
D27*
%TO.C,U4*%
X192430000Y-103130000D03*
D28*
X194970000Y-103130000D03*
X197510000Y-103130000D03*
X200050000Y-103130000D03*
X202590000Y-103130000D03*
X205130000Y-103130000D03*
X207670000Y-103130000D03*
X207670000Y-95510000D03*
X205130000Y-95510000D03*
X202590000Y-95510000D03*
X200050000Y-95510000D03*
X197510000Y-95510000D03*
X194970000Y-95510000D03*
X192430000Y-95510000D03*
%TD*%
D10*
%TO.C,U3*%
X193530000Y-52850000D03*
D11*
X193530000Y-55390000D03*
X193530000Y-57930000D03*
X193530000Y-60470000D03*
X193530000Y-63010000D03*
X193530000Y-65550000D03*
X193530000Y-68090000D03*
X193530000Y-70630000D03*
X193530000Y-73170000D03*
X193530000Y-75710000D03*
X193530000Y-78250000D03*
X193530000Y-80790000D03*
X193530000Y-83330000D03*
X193530000Y-85870000D03*
X201150000Y-85870000D03*
X201150000Y-83330000D03*
X201150000Y-80790000D03*
X201150000Y-78250000D03*
X201150000Y-75710000D03*
X201150000Y-73170000D03*
X201150000Y-70630000D03*
X201150000Y-68090000D03*
X201150000Y-65550000D03*
X201150000Y-63010000D03*
X201150000Y-60470000D03*
X201150000Y-57930000D03*
X201150000Y-55390000D03*
X201150000Y-52850000D03*
%TD*%
D18*
%TO.C,X1*%
X190860000Y-47810000D03*
D25*
X198480000Y-47810000D03*
X198480000Y-40190000D03*
X190860000Y-40190000D03*
%TD*%
D16*
%TO.C,REF\u002A\u002A*%
X226600000Y-35850000D03*
D17*
X229140000Y-35850000D03*
X231680000Y-35850000D03*
X234220000Y-35850000D03*
X236760000Y-35850000D03*
X239300000Y-35850000D03*
X241840000Y-35850000D03*
X244380000Y-35850000D03*
%TD*%
D18*
%TO.C,U5*%
X244770000Y-91550000D03*
D19*
X244770000Y-89010000D03*
X244770000Y-86470000D03*
X244770000Y-83930000D03*
X244770000Y-81390000D03*
X244770000Y-78850000D03*
X244770000Y-76310000D03*
X244770000Y-73770000D03*
X244770000Y-71230000D03*
X244770000Y-68690000D03*
X244770000Y-66150000D03*
X244770000Y-63610000D03*
X244770000Y-61070000D03*
X244770000Y-58530000D03*
X244770000Y-55990000D03*
X244770000Y-53450000D03*
X244770000Y-50910000D03*
X244770000Y-48370000D03*
X244770000Y-45830000D03*
X244770000Y-43290000D03*
X229530000Y-43290000D03*
X229530000Y-45830000D03*
X229530000Y-48370000D03*
X229530000Y-50910000D03*
X229530000Y-53450000D03*
X229530000Y-55990000D03*
X229530000Y-58530000D03*
X229530000Y-61070000D03*
X229530000Y-63610000D03*
X229530000Y-66150000D03*
X229530000Y-68690000D03*
X229530000Y-71230000D03*
X229530000Y-73770000D03*
X229530000Y-76310000D03*
X229530000Y-78850000D03*
X229530000Y-81390000D03*
X229530000Y-83930000D03*
X229530000Y-86470000D03*
X229530000Y-89010000D03*
X229530000Y-91550000D03*
%TD*%
M02*
